<?xml version="1.0" encoding="UTF-8" standalone="no"?>
<!-- Created with Inkscape (http://www.inkscape.org/) -->

<svg
   width="1099.7911mm"
   height="737.64722mm"
   viewBox="0 0 1099.7911 737.64722"
   version="1.1"
   id="svg1"
   sodipodi:docname="swedish_foodhouse.svg"
   inkscape:version="1.4 (86a8ad7, 2024-10-11)"
   xmlns:inkscape="http://www.inkscape.org/namespaces/inkscape"
   xmlns:sodipodi="http://sodipodi.sourceforge.net/DTD/sodipodi-0.dtd"
   xmlns="http://www.w3.org/2000/svg"
   xmlns:svg="http://www.w3.org/2000/svg">
  <sodipodi:namedview
     id="namedview1"
     pagecolor="#ffffff"
     bordercolor="#000000"
     borderopacity="0.25"
     inkscape:showpageshadow="2"
     inkscape:pageopacity="0.0"
     inkscape:pagecheckerboard="0"
     inkscape:deskcolor="#d1d1d1"
     inkscape:document-units="mm"
     inkscape:zoom="0.12708801"
     inkscape:cx="1770.4266"
     inkscape:cy="1742.8867"
     inkscape:window-width="1920"
     inkscape:window-height="1009"
     inkscape:window-x="1912"
     inkscape:window-y="352"
     inkscape:window-maximized="1"
     inkscape:current-layer="layer1" />
  <defs
     id="defs1" />
  <g
     inkscape:label="Layer 1"
     inkscape:groupmode="layer"
     id="layer1"
     transform="translate(402.43128,241.56458)">
    <g
       id="g7"
       transform="matrix(0.26458333,0,0,0.26458333,-1373.0528,-150.58914)">
      <path
         id="path8"
         d="m 0,0 c -0.102,1.604 -10.201,162.407 -11.46,332.28 -2.345,316.665 26.687,390.965 48.73,419.305 51.647,66.403 105.887,78.072 149.47,87.448 22.423,4.823 41.895,9.01 59.052,19.872 1.557,2.881 5.913,13.364 8.935,44.299 2.663,27.255 3.646,62.591 4.686,100.002 4.337,155.958 10.278,369.549 143.636,436.227 103.067,51.534 338.004,57.149 565.206,62.58 96.381,2.303 187.416,4.479 259.804,10.204 99.957,7.905 125.38,20.139 131.671,25.032 16.385,12.743 18.705,64.159 20.754,109.522 3.076,68.147 6.905,152.957 51.621,220.055 52.805,79.235 148.11,115.776 291.36,111.71 80.334,-2.28 151.872,-5.156 213.828,-17.296 72.89,-14.283 123.999,-39.793 160.841,-80.282 51.11,-56.17 72.135,-141.387 64.276,-260.52 -3.079,-46.669 8.539,-80.135 34.531,-99.469 16.833,-12.52 35.225,-15.867 40.941,-16.635 15.13,1.16 79.174,5.246 152.813,-1.989 116.141,-11.41 196.482,-44.7 238.794,-98.946 93.357,-119.689 71.771,-266.11 54.427,-383.762 -8.005,-54.303 -15.567,-105.594 -7.775,-136.764 0.014,-0.055 0.028,-0.106 0.04,-0.153 8.406,-5.413 44.367,-3.805 66.025,-2.836 l 2.12,0.095 c 45.936,2.049 108.848,4.856 163.419,-22.028 63.628,-31.345 102.436,-96.334 115.348,-193.162 40.62,-304.649 -5.438,-666.624 -7.418,-681.884 l -3.75,-28.9 -29.143,0.148 -2950.016,14.938 -30.813,0.156 z"
         style="fill:#c8183d;fill-opacity:1;fill-rule:nonzero;stroke:#ffffff;stroke-width:66;stroke-linecap:butt;stroke-linejoin:miter;stroke-miterlimit:10;stroke-dasharray:none;stroke-opacity:1"
         transform="matrix(1.3333333,0,0,-1.3333333,3727.9587,2338.5905)" />
    </g>
    <g
       id="g8"
       transform="matrix(0.26458333,0,0,0.26458333,-1373.0528,-150.58914)">
      <path
         id="path9"
         d="m 0,0 -5.311,-338.947 c 0,0 0.438,-57.568 41.597,-94.522 13.278,-15.256 35.483,-46.836 34.857,-87.11 l -7.509,-479.275 c -1.9,-20.466 -10.08,-57.355 -41.577,-100.254 -39.86,-38.712 -66.478,-101.979 -67.608,-174.059 -1.872,-119.51 66.767,-217.491 153.308,-218.847 86.542,-1.356 158.215,94.427 160.088,213.937 0.984,62.818 -17.633,119.514 -47.972,159.531 h 0.011 c 0,0 -0.032,0.027 -0.033,0.029 -6.077,8.01 -12.541,15.447 -19.504,22.017 -17.233,23.343 -39.485,64.932 -38.566,123.571 v 0.003 l 7.137,455.524 0.166,10.665 c 1.902,13.984 10.952,41.286 48.187,79.14 33.305,35.676 33.695,85.634 33.695,85.634 l 5.31,338.948 -8.417,8.154 C 236.927,14.728 219.472,14.421 208.918,3.454 l -6.377,-6.627 -4.902,-312.888 c -0.003,-0.005 -25.954,-25.657 -45.461,1.179 l 4.894,312.422 -8.351,7.538 c -9.796,8.842 -24.514,9.409 -34.96,1.347 l -10.425,-8.044 -4.801,-306.476 c -0.003,-0.004 -26.771,-33.794 -49.626,-0.769 v 10e-4 L 53.735,-0.841 48.478,5.018 C 37.02,17.786 17.104,18.055 5.305,5.601 Z"
         style="fill:#ffffff;fill-opacity:1;fill-rule:nonzero;stroke:none"
         transform="matrix(1.3333333,0,0,-1.3333333,5953.1133,86.0084)" />
    </g>
    <g
       id="g9"
       transform="matrix(0.26458333,0,0,0.26458333,-1373.0528,-150.58914)">
      <path
         id="path10"
         d="m 0,0 c -20.522,23.505 -30.191,47.019 -30.219,79.577 -0.052,61.531 48.767,111.612 110.887,111.665 62.121,0.052 110.411,-49.947 110.463,-111.478 l 0.015,-18.685 C 191.154,52.632 183.915,47.2 177.285,47.194 l -51.856,-0.043 c -7.244,-0.006 -13.288,4.801 -13.295,13.247 -0.024,28.359 -3.653,51.879 -31.399,51.855 C 62.639,112.238 49.393,97.151 49.408,79.644 49.416,69.995 52.419,60.962 59.669,53.135 l 98.409,-114.508 c 27.771,-30.128 34.415,-47.629 34.443,-79.598 0.05,-59.1 -48.153,-112.815 -111.476,-112.868 -62.12,-0.053 -112.228,51.173 -112.28,112.679 l -0.018,20.527 c -0.008,9.649 8.436,13.266 13.273,13.27 l 52.47,0.044 c 26.518,0.023 -2.964,-66.346 46.487,-66.304 17.482,0.015 32.546,13.9 32.531,32.586 -0.008,8.446 -7.235,18.089 -15.099,27.143 z"
         style="fill:#f79ab4;fill-opacity:1;fill-rule:nonzero;stroke:none"
         transform="matrix(1.3333333,0,0,-1.3333333,4454.0596,985.95987)" />
    </g>
    <g
       id="g10"
       transform="matrix(0.26458333,0,0,0.26458333,-1373.0528,-150.58914)">
      <path
         id="path11"
         d="m 0,0 c -0.007,8.446 4.802,12.674 13.248,12.681 l 53.085,0.045 C 74.779,12.733 79.595,8.514 79.602,0.067 l 0.265,-313.007 c 0.015,-18.072 14.514,-32.546 32.585,-32.531 17.507,0.015 32.571,14.514 32.555,32.586 L 144.743,0.122 c -0.008,8.447 4.212,12.674 12.659,12.681 l 54.263,0.046 c 8.446,0.007 12.059,-4.213 12.066,-12.66 l 0.265,-313.007 c 0.015,-18.072 15.717,-32.545 32.61,-32.531 18.096,0.016 33.159,15.104 33.144,32.586 L 289.485,0.245 c -0.007,8.446 5.416,12.674 12.659,12.68 l 53.06,0.045 c 6.63,0.006 13.264,-5.415 13.27,-12.658 l 0.265,-313.008 c 0.052,-62.12 -49.946,-112.203 -112.066,-112.255 -27.131,-0.023 -51.89,10.195 -71.792,26.481 -19.899,-16.32 -45.205,-26.58 -72.361,-26.603 -62.121,-0.053 -112.203,49.945 -112.255,112.065 z"
         style="fill:#f79ab4;fill-opacity:1;fill-rule:nonzero;stroke:none"
         transform="matrix(1.3333333,0,0,-1.3333333,4765.2695,756.53067)" />
    </g>
    <g
       id="g11"
       transform="matrix(0.26458333,0,0,0.26458333,-1373.0528,-150.58914)">
      <path
         id="path12"
         d="m 0,0 c -0.008,9.65 4.801,13.877 13.247,13.884 l 197.827,0.167 c 8.422,0.007 12.65,-6.005 12.658,-14.451 l 0.043,-51.268 c 0.006,-6.629 -5.415,-13.288 -13.248,-13.294 l -130.87,-0.111 0.082,-96.495 114.591,0.097 c 7.833,0.006 12.673,-4.188 12.681,-13.248 l 0.044,-52.471 c 0.006,-7.243 -3.623,-13.262 -12.658,-13.27 l -114.591,-0.097 0.082,-97.698 130.871,0.111 c 7.832,0.006 13.262,-4.212 13.27,-13.862 l 0.045,-53.084 c 0.007,-8.447 -4.213,-12.06 -12.635,-12.067 L 13.612,-417.324 C 6.369,-417.33 0.35,-413.726 0.343,-405.28 Z"
         style="fill:#f79ab4;fill-opacity:1;fill-rule:nonzero;stroke:none"
         transform="matrix(1.3333333,0,0,-1.3333333,5327.6436,757.65933)" />
    </g>
    <g
       id="g12"
       transform="matrix(0.26458333,0,0,0.26458333,-1373.0528,-150.58914)">
      <path
         id="path13"
         d="m 0,0 c -0.008,9.65 4.8,13.877 14.45,13.885 l 97.698,0.083 c 62.121,0.052 111.608,-43.317 111.666,-111.477 l 0.176,-208.066 c 0.052,-61.507 -49.357,-111.613 -111.477,-111.665 l -97.698,-0.083 c -6.016,-0.005 -14.463,0.602 -14.472,11.454 z m 79.657,-65.073 0.231,-273.182 32.558,0.028 c 18.096,0.015 32.57,15.103 32.555,32.585 l -0.176,208.066 c -0.015,18.096 -14.514,32.546 -32.61,32.531 z"
         style="fill:#f79ab4;fill-opacity:1;fill-rule:nonzero;stroke:none"
         transform="matrix(1.3333333,0,0,-1.3333333,5677.6452,757.3632)" />
    </g>
    <g
       id="g13"
       transform="matrix(0.26458333,0,0,0.26458333,-1373.0528,-150.58914)">
      <path
         id="path14"
         d="m 0,0 c -20.546,23.505 -30.216,47.019 -30.243,79.577 -0.052,61.531 48.766,111.612 110.887,111.665 62.121,0.052 110.411,-49.947 110.462,-111.478 l 0.016,-18.685 C 191.129,52.632 183.891,47.2 177.261,47.194 L 125.38,47.15 c -7.219,-0.006 -13.264,4.802 -13.271,13.248 -0.023,28.359 -3.653,51.879 -31.398,51.855 C 62.615,112.238 49.369,97.151 49.384,79.644 49.392,69.995 52.395,60.961 59.645,53.135 l 98.409,-114.508 c 27.771,-30.128 34.415,-47.629 34.442,-79.598 0.05,-59.1 -48.152,-112.815 -111.475,-112.868 -62.121,-0.053 -112.229,51.172 -112.281,112.679 l -0.017,20.527 c -0.008,9.649 8.435,13.266 13.272,13.27 l 52.471,0.044 c 26.517,0.023 -2.964,-66.346 46.486,-66.304 17.483,0.015 32.547,13.9 32.531,32.585 -0.007,8.447 -7.258,18.09 -15.099,27.144 z"
         style="fill:#f79ab4;fill-opacity:1;fill-rule:nonzero;stroke:none"
         transform="matrix(1.3333333,0,0,-1.3333333,6292.0807,985.52893)" />
    </g>
    <g
       id="g14"
       transform="matrix(0.26458333,0,0,0.26458333,-1373.0528,-150.58914)">
      <path
         id="path15"
         d="m 0,0 c -0.005,6.04 5.416,12.674 12.659,12.68 l 53.674,0.046 C 71.759,12.73 79.597,7.311 79.603,0.067 l 0.137,-162.838 65.141,0.055 -0.138,162.838 c -0.007,7.244 5.415,12.675 13.248,12.681 l 51.268,0.044 c 7.243,0.006 14.466,-4.801 14.472,-12.658 l 0.344,-405.869 c 0.007,-8.446 -4.803,-12.673 -14.452,-12.681 l -51.268,-0.044 c -6.628,-0.005 -13.261,4.212 -13.269,12.659 l -0.139,164.041 -65.14,-0.055 0.139,-164.042 c 0.006,-7.857 -6.619,-12.675 -15.065,-12.682 l -51.858,-0.044 c -8.446,-0.007 -12.672,4.213 -12.679,12.659 z"
         style="fill:#f79ab4;fill-opacity:1;fill-rule:nonzero;stroke:none"
         transform="matrix(1.3333333,0,0,-1.3333333,6603.2579,756.09987)" />
    </g>
    <g
       id="g15"
       transform="matrix(0.26458333,0,0,0.26458333,-1373.0528,-150.58914)">
      <path
         id="path16"
         d="m 0,0 c 0.006,8.714 4.651,13.376 13.39,13.938 l 189.016,-0.14 c 9.33,-0.007 13.376,-4.652 13.369,-13.958 l -0.036,-48.876 c -0.005,-6.962 -4.06,-13.353 -13.39,-13.346 l -125.624,0.093 -0.069,-93.063 109.924,-0.082 c 6.986,-0.005 12.809,-3.514 12.802,-12.82 l -0.038,-50.605 c -0.005,-7.554 -4.082,-12.784 -12.82,-12.778 L 76.6,-231.555 76.482,-390.356 c -0.005,-6.962 -5.242,-11.623 -12.227,-11.618 l -53.518,0.04 c -6.393,0.005 -11.032,3.489 -11.026,11.635 z"
         style="fill:#f79ab4;fill-opacity:1;fill-rule:nonzero;stroke:none"
         transform="matrix(1.3333333,0,0,-1.3333333,4149.5283,1507.1859)" />
    </g>
    <g
       id="g16"
       transform="matrix(0.26458333,0,0,0.26458333,-1373.0528,-150.58914)">
      <path
         id="path17"
         d="M 0,0 C 0.044,59.343 48.34,107.568 108.251,107.523 168.163,107.479 215.819,59.183 215.775,-0.16 l -0.158,-212.886 c -0.044,-59.887 -47.772,-108.136 -107.683,-108.092 -59.911,0.045 -108.136,48.365 -108.091,108.252 z m 139.595,-0.103 c 0.013,16.884 -13.948,31.434 -31.4,31.447 C 90.743,31.357 76.784,16.827 76.772,-0.057 l -0.158,-212.886 c -0.013,-17.429 13.924,-31.41 31.377,-31.423 17.452,-0.013 31.434,13.948 31.447,31.377 z"
         style="fill:#f79ab4;fill-opacity:1;fill-rule:nonzero;stroke:none"
         transform="matrix(1.3333333,0,0,-1.3333333,4470.7048,1623.7733)" />
    </g>
    <g
       id="g17"
       transform="matrix(0.26458333,0,0,0.26458333,-1373.0528,-150.58914)">
      <path
         id="path18"
         d="M 0,0 C 0.044,59.343 48.34,107.568 108.251,107.523 168.162,107.479 215.819,59.183 215.775,-0.16 l -0.158,-212.886 c -0.044,-59.887 -47.772,-108.136 -107.683,-108.092 -59.912,0.044 -108.136,48.365 -108.092,108.252 z m 139.595,-0.103 c 0.013,16.884 -13.948,31.434 -31.4,31.447 C 90.742,31.357 76.784,16.827 76.771,-0.057 l -0.157,-212.886 c -0.013,-17.429 13.924,-31.41 31.376,-31.423 17.453,-0.013 31.435,13.948 31.447,31.376 z"
         style="fill:#f79ab4;fill-opacity:1;fill-rule:nonzero;stroke:none"
         transform="matrix(1.3333333,0,0,-1.3333333,4823.7311,1624.0348)" />
    </g>
    <g
       id="g18"
       transform="matrix(0.26458333,0,0,0.26458333,-1373.0528,-150.58914)">
      <path
         id="path19"
         d="m 0,0 c 0.007,9.307 4.651,13.376 13.958,13.369 l 94.224,-0.07 c 59.911,-0.044 107.572,-41.946 107.523,-107.683 l -0.149,-200.667 c -0.044,-59.319 -47.771,-107.568 -107.683,-107.523 l -94.224,0.07 c -5.801,0.004 -13.947,0.602 -13.939,11.069 z m 76.725,-62.857 -0.195,-263.491 31.4,-0.023 c 17.452,-0.013 31.435,14.517 31.447,31.377 l 0.149,200.667 c 0.013,17.452 -13.949,31.434 -31.401,31.447 z"
         style="fill:#f79ab4;fill-opacity:1;fill-rule:nonzero;stroke:none"
         transform="matrix(1.3333333,0,0,-1.3333333,5178.4225,1507.1907)" />
    </g>
    <g
       id="g19"
       transform="matrix(0.26458333,0,0,0.26458333,-1373.0528,-150.58914)">
      <path
         id="path20"
         d="M 0,0 C 0.004,5.825 5.242,12.215 12.228,12.21 L 63.993,12.172 C 69.227,12.168 76.776,6.929 76.771,-0.057 l -0.116,-157.024 62.824,-0.046 0.116,157.024 c 0.006,6.985 5.243,12.215 12.797,12.209 l 49.444,-0.036 c 6.986,-0.006 13.944,-4.652 13.939,-12.23 l -0.291,-391.435 c -0.005,-8.146 -4.65,-12.216 -13.956,-12.209 l -49.445,0.036 c -6.394,0.005 -12.784,4.083 -12.778,12.229 l 0.117,158.208 -62.823,0.047 -0.118,-158.208 c -0.005,-7.554 -6.402,-12.215 -14.548,-12.209 l -50.013,0.037 c -8.147,0.007 -12.216,4.082 -12.21,12.228 z"
         style="fill:#f79ab4;fill-opacity:1;fill-rule:nonzero;stroke:none"
         transform="matrix(1.3333333,0,0,-1.3333333,5533.0287,1505.9061)" />
    </g>
    <g
       id="g20"
       transform="matrix(0.26458333,0,0,0.26458333,-1373.0528,-150.58914)">
      <path
         id="path21"
         d="M 0,0 C 0.005,6.986 5.242,12.215 13.389,12.209 L 63.993,12.172 C 70.387,12.167 76.777,8.089 76.771,-0.057 l -0.223,-301.876 c -0.013,-17.429 13.925,-31.411 31.377,-31.424 17.452,-0.013 31.433,13.948 31.447,31.377 l 0.224,301.877 c 0.006,8.146 4.082,12.216 13.387,12.209 l 51.174,-0.038 c 6.986,-0.005 11.623,-4.65 11.618,-12.228 l -0.224,-301.876 c -0.044,-59.888 -47.772,-108.137 -107.683,-108.092 -59.911,0.044 -108.136,48.364 -108.092,108.252 z"
         style="fill:#f79ab4;fill-opacity:1;fill-rule:nonzero;stroke:none"
         transform="matrix(1.3333333,0,0,-1.3333333,6382.5937,1521.0951)" />
    </g>
    <g
       id="g21"
       transform="matrix(0.26458333,0,0,0.26458333,-1373.0528,-150.58914)">
      <path
         id="path22"
         d="m 0,0 c -19.757,22.701 -29.046,45.393 -29.022,76.793 0.043,59.343 47.203,107.569 107.114,107.524 59.911,-0.044 106.407,-48.339 106.363,-107.682 L 184.441,58.614 C 184.436,50.468 177.446,45.24 171.053,45.245 l -50.013,0.037 c -6.986,0.005 -12.808,4.651 -12.802,12.797 0.02,27.351 -3.444,50.039 -30.203,50.059 C 60.583,108.151 47.785,93.62 47.772,76.736 47.766,67.43 50.648,58.713 57.628,51.154 l 94.734,-110.586 c 26.738,-29.099 33.118,-45.988 33.096,-76.82 -0.043,-56.998 -46.612,-108.729 -107.685,-108.684 -59.911,0.045 -108.158,49.525 -108.114,108.844 l 0.015,19.797 c 0.007,9.306 8.155,12.781 12.82,12.778 l 50.605,-0.038 c 25.575,-0.019 -2.96,-63.982 44.732,-64.017 16.86,-0.012 31.41,13.356 31.424,31.377 0.006,8.146 -6.949,17.457 -14.521,26.201 z"
         style="fill:#f79ab4;fill-opacity:1;fill-rule:nonzero;stroke:none"
         transform="matrix(1.3333333,0,0,-1.3333333,6760.2735,1742.3912)" />
    </g>
    <g
       id="g22"
       transform="matrix(0.26458333,0,0,0.26458333,-1373.0528,-150.58914)">
      <path
         id="path23"
         d="m 0,0 c 0.007,9.306 4.65,13.376 12.797,13.37 l 190.792,-0.141 c 8.123,-0.006 12.191,-5.811 12.185,-13.957 l -0.037,-49.445 c -0.005,-6.393 -5.242,-12.783 -12.797,-12.778 l -126.215,0.094 -0.07,-93.064 110.517,-0.081 c 7.554,-0.006 12.216,-4.082 12.209,-12.821 l -0.037,-50.604 c -0.005,-6.986 -3.515,-12.785 -12.229,-12.779 l -110.515,0.082 -0.071,-94.224 126.216,-0.093 c 7.555,-0.006 12.784,-4.083 12.777,-13.389 l -0.037,-51.197 c -0.006,-8.146 -4.082,-11.624 -12.204,-11.618 l -190.793,0.141 c -6.985,0.005 -12.784,3.491 -12.778,11.637 z"
         style="fill:#f79ab4;fill-opacity:1;fill-rule:nonzero;stroke:none"
         transform="matrix(1.3333333,0,0,-1.3333333,7060.7656,1523.1445)" />
    </g>
  </g>
</svg>
