<?xml version="1.0" encoding="UTF-8" standalone="no"?>
<!-- Created with Inkscape (http://www.inkscape.org/) -->

<svg
   width="1521.6326mm"
   height="520.53699mm"
   viewBox="0 0 1521.6326 520.53699"
   version="1.1"
   id="svg1"
   xmlns="http://www.w3.org/2000/svg"
   xmlns:svg="http://www.w3.org/2000/svg">
  <defs
     id="defs1">
    <clipPath
       clipPathUnits="userSpaceOnUse"
       id="clipPath30">
      <path
         d="M 6.827,6.827 H 8539.11 V 1735.961 H 6.827 Z"
         transform="translate(-2846.1371,-166.17548)"
         id="path30" />
    </clipPath>
  </defs>
  <g
     id="layer1"
     transform="translate(636.85225,146.57917)">
    <g
       id="g29"
       transform="matrix(0.26458333,0,0,0.26458333,-4401.7994,-186.31147)">
      <path
         id="path29"
         d="m 0,0 c -67.673,0 -136.237,3.917 -203.779,11.634 -66.213,7.569 -188.266,29.805 -261.79,93.691 -77.859,67.651 -91.643,182.156 -32.061,266.347 l 1.304,1.847 10.455,11.12 c -48.369,96.746 -77.273,210.949 -86.034,340.012 -93.084,124.603 -88.928,298.707 11.164,409.147 45.33,49.762 109.052,78.431 175.087,78.864 41.145,74.636 118.426,120.548 204.166,120.548 4.363,0 8.764,-0.118 13.174,-0.362 13.741,-0.753 25.787,-2.562 37.981,-4.641 48.402,51.802 117.172,82.226 187.621,82.226 27.205,0 54.061,-4.422 79.828,-13.144 104.471,-35.368 174.992,-130.855 184.449,-246.913 l 11.491,-3.77 c 54.027,68.211 132.547,108.266 214.352,108.287 l 2663.331,0.715 c 44.271,0 88.954,-6.278 136.718,-19.19 110.343,-29.839 192.615,-102.502 231.66,-204.599 38.498,-100.668 39.912,-237.127 3.787,-365.033 -34.105,-120.719 -102.4,-203.455 -208.099,-251.575 26.355,-33.306 40.853,-72.271 42.427,-114.855 2.625,-71.207 -33.549,-135.736 -94.389,-168.403 -32.221,-17.305 -67,-25.808 -106.314,-25.993 l -137.457,-0.623 C 3047.542,43.593 2987.418,6.93 2917.146,6.93 l -3.569,0.029 c -68.657,1.204 -129.084,38.052 -159.664,96.758 l -356.428,-0.075 c -22.678,-17.617 -44.304,-31.11 -71.316,-39.521 -34.199,-10.648 -62.473,-15.428 -91.655,-15.5 l -469.096,-1.128 -723.577,-0.816 c -50.405,0 -121.969,5.836 -180.575,54.184 L 477.889,100.764 C 453.856,80.408 426.646,64.975 395.086,53.767 336.616,33.008 274.973,19.497 201.086,11.25 134.205,3.787 66.549,0 0,0"
         style="fill:#c8183d;fill-opacity:1;fill-rule:nonzero;stroke:none"
         transform="matrix(1.3333333,0,0,-1.3333333,15125.436,2074.1527)"
         clip-path="url(#clipPath30)" />
    </g>
    <g
       id="g30"
       transform="matrix(0.26458333,0,0,0.26458333,-4401.7994,-186.31147)">
      <path
         id="path31"
         d="m 0,0 c 23.155,-0.001 46.563,-3.699 69.388,-11.427 103.857,-35.159 162.371,-132.158 163.411,-240.016 l 55.303,-18.135 c 43.87,65.512 117.838,114.013 202.027,114.035 l 2663.332,0.717 h 0.117 c 44.205,0 86.921,-6.934 128.089,-18.067 97.291,-26.308 173.604,-90.256 209.759,-184.801 39.635,-103.639 32.92,-238.143 2.862,-344.556 -35.471,-125.568 -109.322,-206.98 -235.033,-248.178 42.527,-33.644 66.268,-77.072 68.155,-128.304 2.138,-57.996 -26.112,-111.058 -77.254,-138.518 -28.38,-15.247 -58.479,-21.969 -91.067,-22.118 l -147.044,-0.672 c -9.253,-0.042 -14.097,-7.017 -17.225,-13.593 -25.652,-53.92 -75.791,-84.768 -134.961,-84.768 -0.995,0 -1.995,0.01 -2.996,0.026 -58.38,1.024 -109.682,32.121 -134.361,85.338 -3.386,7.302 -6.702,11.426 -15.863,11.426 h -0.01 l -377.795,-0.083 c -22.002,-17.828 -42.98,-32.693 -69.631,-40.989 -26.584,-8.274 -52.796,-13.953 -82.067,-14.024 l -469.081,-1.129 -723.543,-0.818 h -0.587 c -63.333,0 -122.37,11.736 -167.7,54.188 l -408.021,-0.105 c -23.694,-22.237 -50.302,-37.859 -81.301,-48.869 -60.584,-21.515 -122.015,-33.622 -186.717,-40.842 -65.893,-7.354 -131.691,-11.049 -197.487,-11.049 -66.669,0 -133.334,3.795 -200.073,11.423 -81.165,9.277 -183.459,33.198 -244.136,85.92 -65.189,56.64 -76.763,152.43 -26.841,222.973 l 24.742,26.318 c -59.701,109.772 -86.449,234.921 -93.73,357.459 -87.74,110.162 -91.092,270.997 3.429,375.293 39.471,43.335 94.21,68.18 152.499,68.179 2.976,0 5.965,-0.066 8.959,-0.195 0.298,-0.014 0.59,-0.02 0.877,-0.02 6.693,0 10.218,3.522 12.916,8.971 34.252,69.151 103.197,111.787 179.878,111.784 3.777,0 7.58,-0.104 11.39,-0.313 18.288,-1.002 34.09,-4.273 52.321,-7.351 C -131.984,-30.972 -67.02,0.001 0,0 M 0.002,65.104 0.001,0 0.002,65.104 c -73.559,0.002 -145.463,-29.383 -198.991,-80.065 -7.809,1.071 -16.008,1.945 -24.836,2.429 -4.96,0.272 -9.991,0.41 -14.953,0.41 -91.414,0.003 -174.398,-45.795 -223.093,-121.333 -68.314,-5.298 -133.072,-36.945 -180.167,-88.65 -56.152,-61.958 -87.023,-143.342 -87.035,-229.277 -0.01,-76.102 24.034,-151.107 68.081,-213.451 9.151,-120.901 35.713,-229.285 79.146,-323.08 -68.877,-97.858 -52.747,-230.686 37.639,-309.219 76.144,-66.162 193.991,-91.692 279.443,-101.459 68.758,-7.859 138.559,-11.843 207.466,-11.843 67.749,0 136.623,3.853 204.708,11.449 76.441,8.532 140.4,22.574 201.283,44.196 31.276,11.108 58.79,25.964 83.454,45.121 l 360.573,0.093 c 64.438,-48.153 138.812,-54.183 191.208,-54.183 h 0.587 l 723.616,0.819 469.165,1.128 c 32.586,0.079 63.815,5.311 101.257,16.966 28.657,8.92 51.985,22.902 72.578,38.052 l 326.841,0.072 c 38.363,-59.088 104.058,-95.457 177.75,-96.747 1.395,-0.025 2.769,-0.037 4.137,-0.037 75.917,0 141.805,36.348 180.893,98.492 l 118.634,0.542 c 44.781,0.205 84.551,9.975 121.581,29.87 71.859,38.583 114.589,114.558 111.502,198.268 -1.339,36.338 -10.687,70.348 -27.557,101.101 95.694,53.651 158.856,137.857 192.028,255.284 37.966,134.41 36.207,278.525 -4.705,385.508 -42.86,112.074 -132.913,191.766 -253.572,224.394 -50.571,13.675 -98.028,20.323 -145.085,20.323 L 490.112,-90.439 c -74.086,-0.02 -145.603,-29.08 -202.077,-80.222 C 262.726,-66.527 190.443,16.325 90.265,50.239 61.132,60.101 30.764,65.103 0.002,65.104"
         style="fill:#ffffff;fill-opacity:1;fill-rule:nonzero;stroke:none"
         transform="matrix(1.3333333,0,0,-1.3333333,15201.819,236.97467)" />
    </g>
    <g
       id="g31"
       transform="matrix(0.26458333,0,0,0.26458333,-4401.7994,-186.31147)">
      <path
         id="path32"
         d="m 0,0 -58.603,6.191 -162.312,2.694 c -12.586,0.209 -25.169,-5.854 -25.203,-20.118 l -0.164,-66.825 c -0.032,-13.465 10.622,-19.962 22.757,-20.183 l 56.676,-1.038 0.05,-367.896 c 0.001,-14.611 8.03,-23.953 22.921,-24.081 l 67.474,-0.579 c 13.107,-0.112 20.238,9.643 20.245,23.408 l 0.191,369.277 54.915,-0.254 c 7.449,-0.034 14.361,0.413 19.265,5.412 C 29.379,-82.612 27,-2.852 0,0"
         style="fill:#fafafa;fill-opacity:1;fill-rule:nonzero;stroke:none"
         transform="matrix(1.3333333,0,0,-1.3333333,19628.639,639.52547)" />
    </g>
    <g
       id="g32"
       transform="matrix(0.26458333,0,0,0.26458333,-4401.7994,-186.31147)">
      <path
         id="path33"
         d="m 0,0 c -2.598,10.722 -7.905,19.962 -19.733,19.983 l -84.832,0.145 c -7.796,0.014 -16.718,-5.247 -18.552,-13.25 l -52.094,-227.391 -53.419,-231.244 c -2.71,-11.73 1.753,-25.27 15.424,-25.365 l 78.578,-0.545 c 10.094,-0.072 16.652,6.798 18.473,16.026 l 10.306,52.239 92.957,-0.108 11.369,-53.577 c 1.799,-8.485 8.455,-14.309 17.483,-14.39 l 77.109,-0.7 c 9.436,-0.085 20.753,8.514 18.17,19.171 z m -87.298,-310.912 26.825,123.797 27.193,-122.257 z"
         style="fill:#fafafa;fill-opacity:1;fill-rule:nonzero;stroke:none"
         transform="matrix(1.3333333,0,0,-1.3333333,19203.693,654.8256)" />
    </g>
    <g
       id="g33"
       transform="matrix(0.26458333,0,0,0.26458333,-4401.7994,-186.31147)">
      <path
         id="path34"
         d="m 0,0 -118.431,1.132 0.654,93.169 89.872,0.357 c 10.614,1.285 15.867,9.608 15.836,19.03 l -0.211,64.792 c -0.032,9.553 -7.034,17.244 -16.743,17.306 l -89.249,0.572 -0.462,90.782 109.845,0.134 c 13.182,0.015 23.895,7.295 23.865,21.325 l -0.136,64.219 c -0.023,10.209 -8.1,19.845 -19.007,19.858 l -204.325,0.26 c -16.823,0.021 -22.61,-12.23 -22.582,-27.517 l 0.802,-450.613 c 0.023,-12.867 12.897,-19.078 24.052,-19.066 l 202.211,0.223 c 12.571,0.014 20.142,8.154 20.055,20.602 L 15.57,-15.923 C 15.517,-8.318 8.224,-0.078 0,0"
         style="fill:#fafafa;fill-opacity:1;fill-rule:nonzero;stroke:none"
         transform="matrix(1.3333333,0,0,-1.3333333,18826.587,1151.6663)" />
    </g>
    <g
       id="g34"
       transform="matrix(0.26458333,0,0,0.26458333,-4401.7994,-186.31147)">
      <path
         id="path35"
         d="m 0,0 c 18.778,18.362 30.308,40.698 30.436,66.008 l 0.328,64.834 c -2.981,44.125 -27.801,81.262 -67.533,99.929 -18.071,8.492 -36.944,14.302 -57.599,14.335 l -142.108,0.228 c -12.156,0.02 -21.092,-10.177 -21.092,-22.499 l 0.007,-453.476 c 0,-12.573 9.039,-21.165 20.837,-21.081 l 152.39,1.07 c 62.054,0.436 121.877,52.614 121.782,117.069 l -0.091,61.036 C 37.313,-42.709 21.804,-17.983 0,0 m -145.553,141.975 38.522,0.061 c 18.111,0.029 33.076,-12.977 33.13,-31.231 l 0.088,-30.429 C -73.761,62.58 -89.191,49.707 -107.03,49.695 l -38.841,-0.027 z m 45.595,-289.52 -45.315,-0.02 -0.115,99.099 41.168,-0.041 c 18.878,-0.019 34.89,-13.966 35.117,-32.869 l 0.38,-31.514 c 0.227,-18.857 -13.33,-34.646 -31.235,-34.655"
         style="fill:#fafafa;fill-opacity:1;fill-rule:nonzero;stroke:none"
         transform="matrix(1.3333333,0,0,-1.3333333,18407.631,954.85653)" />
    </g>
    <g
       id="g35"
       transform="matrix(0.26458333,0,0,0.26458333,-4401.7994,-186.31147)">
      <path
         id="path36"
         d="m 0,0 -233.923,-0.207 c -9.775,-0.008 -16.988,-11.266 -16.959,-19.621 l 0.24,-68.532 c 0.041,-11.722 10.066,-18.27 20.99,-18.387 l 58.364,-0.617 0.806,-371.957 c 0.022,-10.333 9.009,-17.533 18.204,-17.548 l 71.778,-0.105 c 11.23,-0.016 20.58,7.649 20.587,18.838 l 0.261,370.602 57.532,0.829 c 11.857,0.172 21.125,8.403 21.162,20.33 l 0.198,64.34 C 19.272,-11.467 12.152,0.011 0,0"
         style="fill:#fafafa;fill-opacity:1;fill-rule:nonzero;stroke:none"
         transform="matrix(1.3333333,0,0,-1.3333333,17985.119,628.02653)" />
    </g>
    <g
       id="g36"
       transform="matrix(0.26458333,0,0,0.26458333,-4401.7994,-186.31147)">
      <path
         id="path37"
         d="M 0,0 17.417,15.009 C 37.12,36.406 49.236,65.002 49.043,94.757 l -0.529,81.323 c -0.207,31.891 -12.841,61.742 -35.161,84.72 -28.439,29.276 -67.624,43.26 -108.588,43.236 l -122.521,-0.076 c -10.831,-0.005 -21.632,-7.993 -21.634,-20.305 l -0.096,-455.425 c -0.002,-13.705 9.036,-22.212 22.077,-22.154 l 67.22,0.298 c 11.874,0.052 23.129,5.908 23.155,19.038 l 0.272,143.685 c 6.007,3.139 17.243,3.612 22.516,-0.307 l 48.628,-148.448 c 2.775,-8.467 10.446,-13.716 19.293,-13.701 l 78.682,0.14 c 10.371,0.018 20.52,9.642 16.724,20.727 z M -57.228,107.424 C -57.274,86.657 -73.324,71.709 -92.653,71.971 l -34.381,0.466 -0.073,124.386 36.798,-0.548 c 18.76,-0.28 33.237,-18.815 33.195,-37.764 z"
         style="fill:#fafafa;fill-opacity:1;fill-rule:nonzero;stroke:none"
         transform="matrix(1.3333333,0,0,-1.3333333,17556.462,1033.3091)" />
    </g>
    <g
       id="g37"
       transform="matrix(0.26458333,0,0,0.26458333,-4401.7994,-186.31147)">
      <path
         id="path38"
         d="m 0,0 -38.489,156.234 c -3.292,13.36 -9.639,22.514 -25.016,22.476 l -79.482,-0.193 c -12.846,-0.031 -18.613,-7.106 -21.351,-18.95 L -270.579,-299.75 c -2.742,-11.852 6.597,-20.876 17.506,-20.825 l 77.564,0.364 c 7.651,0.352 15.508,5.076 17.101,12.838 l 11.523,56.141 92.884,0.31 13.244,-55.42 c 2.232,-9.339 11.405,-13.947 19.833,-13.854 l 75.113,0.833 c 9.396,0.103 21.321,8.009 18.514,19.586 z m -128.008,-151.56 27.467,123.583 27.633,-124.127 z"
         style="fill:#fafafa;fill-opacity:1;fill-rule:nonzero;stroke:none"
         transform="matrix(1.3333333,0,0,-1.3333333,17090.882,865.98493)" />
    </g>
    <g
       id="g38"
       transform="matrix(0.26458333,0,0,0.26458333,-4401.7994,-186.31147)">
      <path
         id="path39"
         d="m 0,0 -112.924,-0.313 -0.274,93.738 91.755,0.731 c 7.166,0.056 15.009,6.862 15.051,12.915 l 0.496,71.417 c 0.067,9.533 -7.308,16.763 -16.771,17.356 l -90.619,0.064 -0.277,91.273 106.069,-0.14 c 12.089,-0.016 24.509,5.121 24.476,19.076 l -0.159,69.019 c -0.024,10.533 -9.263,17.781 -19.45,17.757 l -206.825,-0.462 c -6.543,-0.014 -16.755,-8.093 -16.757,-15.459 l -0.041,-464.508 c -0.001,-13.341 11.516,-21.742 23.911,-21.579 l 197.143,2.599 c 7.621,0.099 13.869,0.131 18.929,5.392 3.248,3.377 5.418,8.583 5.395,15.244 l -0.231,66.871 C 18.86,-8.25 11.039,0.031 0,0"
         style="fill:#fafafa;fill-opacity:1;fill-rule:nonzero;stroke:none"
         transform="matrix(1.3333333,0,0,-1.3333333,16653.669,1151.632)" />
    </g>
    <g
       id="g39"
       transform="matrix(0.26458333,0,0,0.26458333,-4401.7994,-186.31147)">
      <path
         id="path40"
         d="m 0,0 -72.469,-0.412 c -11.312,-0.065 -17.945,-10.965 -17.945,-21.602 l 0.014,-174.586 -73.11,-0.625 -0.603,177.626 c -0.039,11.511 -9.7,19.79 -20.752,19.668 l -74.4,-0.82 c -10.42,-0.115 -15.008,-11.784 -15.003,-21.657 l 0.224,-455.866 c 0.007,-14.923 8.784,-25.989 24.214,-25.823 l 67.424,0.727 c 9.884,0.107 18.332,9.689 18.362,19.745 l 0.526,178.135 73.377,0.007 0.136,-175.607 c 0.312,-12.735 9.962,-22.13 22.602,-22.021 l 65.705,0.561 c 13.694,0.117 22.826,8.534 22.82,21.985 L 20.901,-19.92 C 20.895,-7.554 10.631,0.061 0,0"
         style="fill:#fafafa;fill-opacity:1;fill-rule:nonzero;stroke:none"
         transform="matrix(1.3333333,0,0,-1.3333333,16250.815,627.94933)" />
    </g>
    <g
       id="g40"
       transform="matrix(0.26458333,0,0,0.26458333,-4401.7994,-186.31147)">
      <path
         id="path41"
         d="m 0,0 c -49.791,6.434 -127.698,24.569 -160.266,57.337 -16.026,16.126 -13.287,39.382 4.49,53.444 22.667,17.928 50.102,27.483 79.213,34.301 53.146,-52.325 114.684,-88.174 189.51,-96.863 120.505,-13.995 259.011,9.038 337.99,108.908 36.178,-6.77 79.413,-19.784 104.588,-45.317 12.704,-14.033 12.523,-32.314 0.116,-46.332 C 518.749,23.792 417.394,6.812 356.906,-0.752 238.002,-15.621 118.77,-15.346 0,0"
         style="fill:#fafafa;fill-opacity:1;fill-rule:nonzero;stroke:none"
         transform="matrix(1.3333333,0,0,-1.3333333,14874.411,1860.1268)" />
    </g>
    <g
       id="g41"
       transform="matrix(0.26458333,0,0,0.26458333,-4401.7994,-186.31147)">
      <path
         id="path42"
         d="m 0,0 c -37.397,-51.874 -87.891,-88.236 -149.76,-105.297 -54.976,-14.994 -110.382,-18.958 -168.804,-13.012 -135.198,13.787 -220.505,110.382 -271.602,228.69 -43.515,100.645 -60.404,202.496 -68.504,311.757 -3.792,51.443 31.624,82.463 75.742,105.298 105.814,54.717 254.713,74.105 374.746,76.345 89.011,1.724 288.663,-14.562 294.178,-116.844 C 94.785,325.371 97.629,134.767 0,0"
         style="fill:#fafafa;fill-opacity:1;fill-rule:nonzero;stroke:none"
         transform="matrix(1.3333333,0,0,-1.3333333,15465.829,1596.2751)" />
    </g>
    <g
       id="g42"
       transform="matrix(0.26458333,0,0,0.26458333,-4401.7994,-186.31147)">
      <path
         id="path43"
         d="M 0,0 C 54.824,37.456 93.783,107.203 78.188,171.339 73.749,184.803 62.8,192.244 48.705,192.335 37.426,192.867 27.668,188.455 15.99,182.226 l -0.905,78.6 C 51.454,276.39 95.786,271.82 124.817,243.1 150.613,217.583 160.605,182.11 158.434,145.204 152.474,43.939 88.794,-44.443 -3.364,-85.414 -11.348,-88.859 -16.465,-93.42 -26.258,-94.261 -14.303,-62.923 -6.22,-34.014 0,0"
         style="fill:#fafafa;fill-opacity:1;fill-rule:nonzero;stroke:none"
         transform="matrix(1.3333333,0,0,-1.3333333,15604.923,1360.5149)" />
    </g>
    <g
       id="g43"
       transform="matrix(0.26458333,0,0,0.26458333,-4401.7994,-186.31147)">
      <path
         id="path44"
         d="m 0,0 c -105.047,-49.981 -239.547,-65.777 -353.18,-64.864 -60.788,0.488 -154.237,8.223 -199.367,48.824 -16.062,14.45 -18.032,38.094 -5.857,56.776 17.126,26.278 41.719,41.717 67.59,54.106 27.147,13.002 52.734,24.225 81.773,32.552 112.674,32.305 246.135,47.158 360.72,25.717 39.52,-7.395 98.415,-22.352 117.02,-59.803 C 88.775,52.901 37.061,17.633 0,0 m -200.926,-28.428 c 44.575,6.509 83.125,22.16 122.196,38.991 27.862,12.004 62.978,40.08 58.241,72.164 -5.453,36.945 -75.852,48.837 -113.911,40.701 27.94,-5.863 65.268,-20.035 65.932,-46.584 0.649,-25.933 -36.695,-49.283 -61.936,-64.294 -23.894,-14.21 -49.706,-22.379 -70.522,-40.978 m -121.829,7.054 c -34.885,9.291 -91.634,22.174 -99.659,52.953 -8.614,33.032 42.544,62.597 74.801,73.09 -49.147,0.048 -133.25,-31.138 -122.511,-85.667 6.202,-31.487 63.118,-48.698 93.756,-50.651 l 94.805,-6.044 c -12.572,10.764 -26.688,12.456 -41.192,16.319 m 83.564,-6.688 c 6.622,9.69 13.645,15.955 22.244,21.942 l 59.774,41.614 c 12.55,8.737 27.641,29.232 22.58,45.464 -9.702,31.115 -82.113,30.481 -109.325,-14.921 -6.699,7.963 -12.672,14.525 -22.105,18.744 -38.58,17.256 -90.536,0.006 -89.967,-34.293 0.704,-42.35 85.067,-45.304 116.799,-78.55"
         style="fill:#c71436;fill-opacity:1;fill-rule:nonzero;stroke:none"
         transform="matrix(1.3333333,0,0,-1.3333333,15409.711,1046.0281)" />
    </g>
    <g
       id="g44"
       transform="matrix(0.26458333,0,0,0.26458333,-4401.7994,-186.31147)">
      <path
         id="path45"
         d="m 0,0 c -35.63,-0.13 -32.926,29.6 -54.042,57.802 l -56.382,-154.9 c -4.776,-13.118 -12.093,-22.093 -26.29,-21.969 -12.795,0.112 -24.211,9.089 -25.408,23.943 L -210.147,136.177 -241.943,18.569 C -244.115,10.534 -253.628,0.574 -262.774,0.563 L -416.635,0.381 c -14.113,-0.018 -22.845,13.201 -22.421,25.065 0.447,12.419 10.527,23.305 24.323,23.307 l 132.05,0.015 48.371,179.736 c 2.967,11.028 16.573,16.566 25.543,16.611 10.551,0.053 22.813,-5.75 25.297,-16.923 l 14.138,-63.589 37.649,-181.681 46.338,121.598 c 4.666,12.244 12.844,21.529 25.175,23.592 12.963,2.166 25.962,-4.693 32.197,-16.63 L 4.653,49.021 181.691,48.255 c 12.478,-0.053 19.465,-15.317 18.983,-24.926 -0.609,-12.114 -10.33,-22.63 -24.14,-22.681 z"
         style="fill:#f79ab4;fill-opacity:1;fill-rule:nonzero;stroke:none"
         transform="matrix(1.3333333,0,0,-1.3333333,19211.084,1717.872)" />
    </g>
    <g
       id="g45"
       transform="matrix(0.26458333,0,0,0.26458333,-4401.7994,-186.31147)">
      <path
         id="path46"
         d="m 0,0 c -3.215,-14.687 -14.401,-25.031 -28.994,-24.962 l -85.023,0.409 c -18.862,0.09 -30.142,17.065 -29.925,33.618 0.241,18.346 15.515,31.772 34.919,31.736 l 77.438,-0.143 C -20.454,40.637 -12.032,35.93 -5.988,29.163 0.781,21.586 2.523,11.521 0,0"
         style="fill:#f79ab4;fill-opacity:1;fill-rule:nonzero;stroke:none"
         transform="matrix(1.3333333,0,0,-1.3333333,18487.152,1615.7737)" />
    </g>
    <g
       id="g46"
       transform="matrix(0.26458333,0,0,0.26458333,-4401.7994,-186.31147)">
      <path
         id="path47"
         d="m 0,0 -130.274,-0.056 -0.052,52.888 110.256,0.958 c 6.543,0.057 12.344,8.782 12.342,13.227 l -0.025,42.712 c -0.004,7.325 -7.317,12.779 -14.589,12.81 l -108.358,0.465 0.414,49.602 125.273,0.264 c 8.054,0.017 17.31,5.707 17.34,14.179 l 0.145,42.287 c 0.033,9.596 -8.025,15.892 -17.434,15.878 l -184.911,-0.251 c -8.864,-0.012 -25.268,-3.411 -25.276,-15.825 l -0.189,-281.319 c -0.007,-11.915 9.851,-20.221 20.626,-20.22 L -5.04,-72.39 c 10.889,0 19.22,7.261 19.252,17.865 l 0.123,39.367 C 14.359,-7.18 8.414,0.003 0,0"
         style="fill:#f79ab4;fill-opacity:1;fill-rule:nonzero;stroke:none"
         transform="matrix(1.3333333,0,0,-1.3333333,18098.653,1725.1235)" />
    </g>
    <g
       id="g47"
       transform="matrix(0.26458333,0,0,0.26458333,-4401.7994,-186.31147)">
      <path
         id="path48"
         d="m 0,0 -194.613,-0.272 c -6.476,-0.009 -19.502,-7.369 -19.514,-15.192 l -0.455,-283.522 c -0.017,-10.975 9.962,-18.761 19.573,-18.753 l 45.589,0.04 c 8.892,-0.226 19.285,6.235 19.36,15.931 l 0.79,101.427 104.587,0.404 c 8.456,0.033 16.429,7.333 16.445,15.605 l 0.079,40.867 c 0.016,8.118 -6.872,14.257 -14.309,14.31 l -106.972,0.761 0.397,55.484 129.12,0.63 c 8.611,0.043 14.253,10.059 14.242,17.323 l -0.06,37.755 C 14.248,-10.169 8.64,0.011 0,0"
         style="fill:#f79ab4;fill-opacity:1;fill-rule:nonzero;stroke:none"
         transform="matrix(1.3333333,0,0,-1.3333333,17669.009,1399.3356)" />
    </g>
    <g
       id="g48"
       transform="matrix(0.26458333,0,0,0.26458333,-4401.7994,-186.31147)">
      <path
         id="path49"
         d="m 0,0 c -3.369,9.012 -12.014,14.028 -21.054,13.98 l -59.89,-0.323 C -91.653,13.599 -98.773,4.754 -102.267,-4.996 l -99.808,-278.481 c -3.991,-11.135 8.911,-20.871 18.378,-20.801 l 49.362,0.361 c 8.4,0.061 14.427,7.187 17.048,14.712 l 14.218,40.821 108.51,-0.294 13.471,-38.945 c 2.728,-7.885 8.828,-16.179 17.968,-16.214 l 51.312,-0.201 c 6.49,-0.024 12.635,4.142 15.022,8.118 3,4.998 3.561,10.246 1.204,16.551 z m -81.69,-178.244 31.647,100.65 32.367,-98.929 c -20.719,-4.433 -41.506,-1.071 -64.014,-1.721"
         style="fill:#f79ab4;fill-opacity:1;fill-rule:nonzero;stroke:none"
         transform="matrix(1.3333333,0,0,-1.3333333,17127.974,1418.1905)" />
    </g>
    <g
       id="g49"
       transform="matrix(0.26458333,0,0,0.26458333,-4401.7994,-186.31147)">
      <path
         id="path50"
         d="m 0,0 c -9.738,6.786 -20.025,0.231 -26.67,-8.809 -15.118,-20.568 -39.638,-29.419 -64.175,-25.883 -20.646,2.974 -41.484,16.156 -51.82,37.452 -16.171,33.321 -15.698,72.812 3.369,104.644 11.748,19.614 32.175,30.318 52.625,31.476 21.977,1.244 44.617,-6.66 57.748,-24.955 7.947,-11.073 21.199,-16.587 33.038,-6.993 l 30.05,24.346 c 4.819,3.906 7.645,9.046 7.59,14.117 -0.051,4.72 -2.399,9.052 -5.716,13.529 -26.35,35.573 -67.45,54.31 -111.962,56.426 -71.747,3.409 -134.136,-40.287 -154.823,-109.053 -28.895,-96.046 21.002,-202.265 125.058,-216.229 59.931,-8.042 119.598,12.511 147.697,66.497 2.651,5.094 2.419,12.478 -2.565,15.95 z"
         style="fill:#f79ab4;fill-opacity:1;fill-rule:nonzero;stroke:none"
         transform="matrix(1.3333333,0,0,-1.3333333,16711.51,1681.2245)" />
    </g>
    <g
       id="g50"
       transform="matrix(0.26458333,0,0,0.26458333,-4401.7994,-186.31147)">
      <path
         id="path51"
         d="m 0,0 c 0.214,-18.878 -12.644,-33.536 -30.587,-33.427 l -87.151,0.53 c -16.454,0.1 -25.709,17.028 -26.563,30.904 -0.878,14.26 7.603,32.554 24.434,32.729 l 89.245,0.923 C -12.941,31.842 -0.208,18.422 0,0"
         style="fill:#f79ab4;fill-opacity:1;fill-rule:nonzero;stroke:none"
         transform="matrix(1.3333333,0,0,-1.3333333,16234.72,1607.1456)" />
    </g>
    <g
       id="g51"
       transform="matrix(0.26458333,0,0,0.26458333,-4401.7994,-186.31147)">
      <path
         id="path52"
         d="m 0,0 c -3.234,-11.523 -16.889,-15.209 -26.8,-12.848 -8.376,1.994 -19.621,12.557 -16.473,24.332 L 7.103,199.941 c 3.35,12.533 16.461,17.467 27.674,15.84 10.071,-1.461 22.471,-11.777 18.838,-24.719 z"
         style="fill:#f79ab4;fill-opacity:1;fill-rule:nonzero;stroke:none"
         transform="matrix(1.3333333,0,0,-1.3333333,15170.086,705.7328)" />
    </g>
    <g
       id="g52"
       transform="matrix(0.26458333,0,0,0.26458333,-4401.7994,-186.31147)">
      <path
         id="path53"
         d="m 0,0 c 3.347,-13.428 -4.288,-22.774 -14.776,-26.841 -8.459,-3.282 -25.286,0.287 -28.374,12.263 l -33.168,128.614 c -3.482,13.499 10.134,24.019 20.471,24.82 13.872,1.073 22.937,-6.786 26.322,-20.367 z"
         style="fill:#f79ab4;fill-opacity:1;fill-rule:nonzero;stroke:none"
         transform="matrix(1.3333333,0,0,-1.3333333,14944.578,705.9868)" />
    </g>
    <g
       id="g53"
       transform="matrix(0.26458333,0,0,0.26458333,-4401.7994,-186.31147)">
      <path
         id="path54"
         d="m 0,0 c 9.983,-7.873 4.943,-23.37 -1.867,-29.586 -9.157,-8.357 -22.238,-8.275 -32.224,-0.485 l -69.996,54.602 c -11.161,8.706 -14.115,22.77 -5.583,33.403 8.232,10.26 22.527,10.801 33.564,2.096 z"
         style="fill:#f79ab4;fill-opacity:1;fill-rule:nonzero;stroke:none"
         transform="matrix(1.3333333,0,0,-1.3333333,14718.382,769.4916)" />
    </g>
    <g
       id="g54"
       transform="matrix(0.26458333,0,0,0.26458333,-4401.7994,-186.31147)">
      <path
         id="path55"
         d="m 0,0 c 2.185,-6.466 -6.258,-12.442 -10.674,-13.844 -6.006,-1.907 -15.248,-0.829 -18.9,5.197 L -47.57,21.049 c -3.867,6.381 -4.331,15.998 -0.322,21.804 2.915,4.222 11.645,11.858 17.69,7.714 C -13.915,39.4 -6.571,19.453 0,0"
         style="fill:#f79ab4;fill-opacity:1;fill-rule:nonzero;stroke:none"
         transform="matrix(1.3333333,0,0,-1.3333333,14829.57,751.03653)" />
    </g>
    <g
       id="g55"
       transform="matrix(0.26458333,0,0,0.26458333,-4401.7994,-186.31147)">
      <path
         id="path56"
         d="m 0,0 c -2.857,-9.439 -22.269,-8.049 -25.355,0.111 -5.015,13.265 -0.555,25.997 -1.248,39.298 -0.508,9.766 2.859,18.205 12.25,20.904 C -8.456,62.009 3.977,58.122 4.376,49.041 5.075,33.127 5.027,16.614 0,0"
         style="fill:#f79ab4;fill-opacity:1;fill-rule:nonzero;stroke:none"
         transform="matrix(1.3333333,0,0,-1.3333333,15041.043,716.54173)" />
    </g>
  </g>
</svg>
