<?xml version="1.0" encoding="UTF-8" standalone="no"?>
<!-- Created with Inkscape (http://www.inkscape.org/) -->

<svg
   width="1575.7135mm"
   height="546.72406mm"
   viewBox="0 0 1575.7135 546.72406"
   version="1.1"
   id="svg1"
   xmlns="http://www.w3.org/2000/svg"
   xmlns:svg="http://www.w3.org/2000/svg">
  <defs
     id="defs1">
    <clipPath
       clipPathUnits="userSpaceOnUse"
       id="clipPath63">
      <path
         d="M 6.827,6.827 H 8539.11 V 1735.961 H 6.827 Z"
         transform="translate(-2527.9828,-130.13183)"
         id="path63" />
    </clipPath>
  </defs>
  <g
     id="layer1"
     transform="translate(682.88971,124.88333)">
    <g
       id="g62"
       transform="matrix(0.26458333,0,0,0.26458333,-7405.6182,-151.52222)">
      <path
         id="path62"
         d="m 0,0 c -37.082,0 -74.011,3.79 -109.763,11.273 -156.519,32.984 -282.11,148.805 -327.814,302.269 -40.254,134.152 -8.352,284.331 81.239,385.255 -41.536,58.129 -53.439,139.272 -29.377,206.795 -18.931,51.766 -14.497,97.153 13.48,138.107 5.984,40.953 27.643,76.893 61.704,102.002 41.089,30.333 89.961,46.378 141.315,46.378 10.181,0 20.441,-0.634 30.684,-1.904 21.421,27.735 49.428,48.889 83.608,63.152 8.69,26.465 21.145,50.706 38.515,75.163 57.728,76.945 144.573,126.234 251.673,143.243 46.486,7.371 85.319,10.795 122.223,10.795 12.515,0 25.005,-0.408 37.125,-1.217 89.048,-5.657 159.161,-55.477 187.447,-133.257 l 0.54,-1.477 8.083,-31.002 12.537,-9.144 c 31.954,5.928 63.282,8.875 93.72,8.875 28.646,0 57.206,-2.608 84.893,-7.762 84.445,-15.418 138.81,-53.243 161.947,-112.563 3.833,0.165 7.704,0.261 11.529,0.261 38.168,0 74.098,-8.483 107.083,-25.24 49.675,24.58 105.065,37.486 161.377,37.486 66.776,0 132.136,-17.626 190.355,-51.158 l 17.457,11.083 0.973,0.529 c 54.951,30.012 117.838,45.873 181.86,45.873 53.473,0 105.166,-11.368 150.725,-33.035 38.372,21.18 82.369,32.053 131.075,32.358 l 106.626,0.582 c 60.867,-1.295 144.409,-13.428 214.253,-61.04 37.25,34.062 84.862,54.252 139.462,58.859 l 1.407,0.113 h 91.173 c 38.877,0 76.573,-12.22 114.615,-37.261 37.416,24.754 76.657,37.278 116.959,37.278 l 151.926,-2.121 1.199,-0.104 c 56.243,-4.832 104.385,-17.175 146.633,-37.634 36.209,19.816 70.583,29.334 105.14,29.334 1.66,0 3.321,-0.026 4.989,-0.07 l 250.208,-6.7 c 25.335,-0.626 47.759,-7.527 68.55,-15.515 22.589,6.423 47.664,9.795 73.32,9.795 40.024,0 78.327,-8.057 109.486,-22.876 26.205,10.126 54.885,15.288 85.288,15.288 6.058,0 12.152,-0.199 18.278,-0.591 l 71.184,-4.85 1.068,-0.138 c 57.111,-7.58 106.07,-35.157 137.862,-77.65 27.483,-37.016 41.128,-81.89 38.495,-126.468 l -10.569,-183.937 -23.074,-404.141 c -3.234,-56.876 -23.085,-100.916 -60.701,-134.612 -22.207,-20.138 -48.533,-35.018 -77.129,-43.718 -6.066,-38.686 -24.874,-73.529 -54.434,-100.056 -33.992,-30.394 -76.319,-45.786 -125.86,-45.786 -5.893,0 -12.011,0.217 -18.165,0.643 l -292.874,19.643 -391.287,16.93 -466.737,9.952 C 2364.829,54.234 2295.81,47.933 2247.876,47.933 c -9.16,0 -18.625,0.261 -28.734,0.8 -22.006,-8.283 -44.508,-12.481 -67.018,-12.481 -22.781,0 -45.066,4.302 -66.369,12.793 -9.021,-0.425 -17.521,-0.634 -25.77,-0.634 -47.011,0 -114.908,6.075 -173.993,56.303 L 1326.97,88.722 C 1163.506,84.142 992.872,74.103 789.946,57.12 782.897,56.529 775.86,56.233 769.042,56.225 707.686,56.225 669.009,80.204 646.637,98.613 623.63,76.311 596.604,59.641 566.111,49.045 538.411,39.354 511.442,33.922 483.729,32.488 L 240.865,19.391 c -6.183,-0.357 -12.363,-0.522 -18.456,-0.522 -21.806,0 -41.888,2.103 -61.995,4.641 l -33.202,-9.282 -0.93,-0.2 C 83.89,4.719 41.402,0 0,0"
         style="fill:#c8183d;fill-opacity:1;fill-rule:nonzero;stroke:none"
         transform="matrix(1.3333333,0,0,-1.3333333,26059.817,2122.2109)"
         clip-path="url(#clipPath63)" />
    </g>
    <g
       id="g63"
       transform="matrix(0.26458333,0,0,0.26458333,-7405.6182,-151.52222)">
      <path
         id="path64"
         d="m 0,0 c 11.565,0 23.182,-0.362 34.886,-1.142 72.643,-4.615 133.079,-42.425 158.087,-111.197 l 10.718,-41.085 28.58,-20.84 c 2.535,-1.873 5.804,-2.931 9.263,-2.931 1.215,0 2.45,0.13 3.688,0.401 31.317,6.247 62.772,9.577 94.235,9.577 26.262,0 52.528,-2.32 78.737,-7.195 68.474,-12.505 127.422,-42.276 143.052,-112.536 4.521,-0.962 8.42,-1.303 12.301,-1.303 2.125,0 4.244,0.102 6.455,0.26 5.963,0.468 11.909,0.705 17.819,0.705 37.326,0 73.471,-9.449 106.626,-29.881 50.174,28.321 105.925,42.133 161.834,42.133 66.34,0 132.903,-19.444 190.66,-57.168 l 34.237,21.734 c 49.755,27.175 107.788,41.765 165.749,41.765 52.847,0 105.632,-12.124 152.062,-37.894 39.448,26.199 83.36,36.915 129.953,37.214 l 105.689,0.595 c 76.512,-1.637 158.235,-20.394 218.524,-72.493 35.427,43.315 83.953,65.795 138.734,70.409 h 89.761 c 42.573,0 80.681,-18.607 114.768,-45.105 34.268,27.386 73.292,45.118 116.785,45.118 0.717,0 1.433,-0.003 2.153,-0.013 l 148.113,-2.084 c 51.951,-4.466 101.223,-15.928 146.476,-40.341 1.786,-0.967 2.791,-1.526 3.851,-1.526 1.062,0 2.178,0.559 4.188,1.824 29.998,18.228 63.733,31.614 100.138,31.614 1.35,0 2.704,-0.019 4.061,-0.055 l 250.23,-6.7 c 24.412,-0.595 46.146,-8.633 68.176,-17.565 22.441,7.867 48.385,11.836 74.587,11.836 37.759,0 76.059,-8.239 105.233,-24.936 0.845,-0.506 1.979,-0.773 3.1,-0.773 0.855,0 1.7,0.155 2.408,0.475 26.675,12.332 54.84,17.643 84.044,17.643 5.345,0 10.724,-0.178 16.136,-0.523 l 69.963,-4.764 c 45.998,-6.104 87.529,-27.241 115.366,-64.455 22.327,-30.07 34.088,-66.54 31.855,-104.35 l -10.569,-183.987 -23.073,-404.149 c -2.531,-44.507 -16.672,-82.019 -49.569,-111.494 -23.966,-21.733 -53.142,-36.171 -86.189,-41.679 -0.148,-39.744 -16.374,-76.066 -45.4,-102.117 -29.77,-26.622 -64.738,-37.185 -103.379,-37.185 -5.22,0 -10.507,0.194 -15.857,0.565 l -292.952,19.65 -392.09,16.97 -481.256,10.272 c -45.364,-45.867 -101.551,-58.636 -162.555,-58.636 -11.26,0 -22.684,0.434 -34.235,1.177 -20.073,-8.464 -40.831,-12.858 -61.522,-12.858 -20.429,0 -40.794,4.28 -60.391,13.156 -10.726,-0.634 -21.319,-1.004 -31.741,-1.004 -60.462,0 -115.514,12.364 -161.477,56.675 L 968.52,-1326.57 c -180.565,-5.061 -359.193,-16.671 -538.864,-31.706 -6.295,-0.529 -12.332,-0.776 -18.111,-0.776 -86.066,0 -116.167,54.864 -125.291,54.868 -0.623,0 -1.147,-0.254 -1.586,-0.802 -22.626,-29.027 -51.951,-50.908 -87.081,-63.114 -23.817,-8.336 -47.336,-13.398 -73.089,-14.737 l -242.935,-13.1 c -5.657,-0.327 -11.199,-0.476 -16.66,-0.476 -21.84,0 -42.437,2.382 -64.467,5.239 l -38.852,-10.867 c -39.368,-8.641 -79.174,-13.241 -119.056,-13.241 -34.311,0 -68.677,3.403 -102.891,10.561 -144.094,30.368 -260.5,137.993 -302.478,278.961 -36.768,122.51 -8.634,264.668 79.49,359.193 5.209,5.507 10.122,9.675 11.759,18.012 -50.165,52.396 -64.902,138.735 -35.428,205.273 -19.798,45.699 -20.839,85.742 9.676,125.487 2.977,35.578 20.394,66.242 49.272,87.528 35.785,26.427 77.85,39.823 121.358,39.823 15.312,0 30.795,-1.657 46.256,-4.989 22.477,37.214 55.821,61.032 95.566,74.28 7.889,30.366 20.542,56.119 38.405,81.276 55.97,74.577 137.694,114.917 229.538,129.505 C -77.757,-4.165 -39.183,0 0,0 m 0,67.244 c -38.718,0 -79.221,-3.558 -127.468,-11.201 -115.917,-18.41 -210.241,-72.2 -272.8,-155.556 l -0.533,-0.711 -0.513,-0.722 c -16.241,-22.873 -28.647,-45.631 -37.968,-69.865 -27.579,-13.408 -51.373,-31.073 -71.213,-52.86 -5.417,0.313 -10.827,0.47 -16.219,0.47 -58.597,0 -114.374,-18.317 -161.303,-52.972 -39.254,-28.935 -64.969,-69.807 -73.711,-116.532 -28.383,-45.241 -34.051,-95.757 -16.928,-150.688 -20.507,-67.514 -11.444,-143.182 23.242,-204.187 -84.523,-108.702 -112.848,-260.844 -71.833,-397.51 49.181,-165.156 184.465,-289.907 353.018,-325.428 38.106,-7.972 77.358,-12.007 116.758,-12.007 43.814,0 88.721,4.983 133.473,14.806 l 1.86,0.408 1.834,0.513 25.803,7.217 c 18.651,-2.239 38.402,-4.075 59.405,-4.075 6.885,0 13.8,0.198 20.55,0.59 l 242.664,13.084 c 30.838,1.604 60.869,7.628 91.683,18.414 25.621,8.902 49.605,21.96 71.173,38.621 27.203,-17.044 66.677,-33.348 120.571,-33.348 7.749,0 15.734,0.34 23.733,1.012 202.258,16.924 372.303,26.932 535.126,31.497 l 546.611,15.633 c 64.656,-49.701 135.658,-55.961 185.488,-55.961 6.592,0 13.315,0.125 20.3,0.378 23.148,-8.322 47.236,-12.531 71.832,-12.531 24.261,0 48.439,4.097 72.087,12.199 8.185,-0.346 16.015,-0.517 23.67,-0.517 76.828,0 138.508,19.047 187.555,58.087 l 454.08,-9.691 390.546,-16.903 292.172,-19.597 c 6.76,-0.472 13.667,-0.716 20.357,-0.716 58.048,0 107.909,18.27 148.203,54.303 30.277,27.171 51.131,61.534 61.102,99.769 25.931,10.406 49.902,25.359 70.833,44.339 43.654,39.109 67.821,92.186 71.534,157.489 l 23.072,404.133 10.569,183.963 c 3.09,52.345 -12.889,105.049 -45.001,148.295 -37.392,49.988 -94.344,82.248 -160.508,91.026 l -2.132,0.283 -2.147,0.146 -69.96,4.764 c -7.146,0.456 -14.017,0.679 -20.706,0.679 -29.465,0 -57.598,-4.3 -83.984,-12.808 -32.941,13.261 -71.258,20.399 -110.801,20.399 -24.673,0 -48.972,-2.813 -71.547,-8.218 -20.797,7.388 -43.45,13.289 -69.577,13.926 l -250.069,6.696 c -1.935,0.053 -3.9,0.079 -5.861,0.079 -34.908,0 -70.445,-8.6 -106.002,-25.614 -42.132,18.079 -89.185,29.179 -142.891,33.796 l -2.402,0.207 -2.411,0.034 -148.113,2.083 -3.1,0.022 c -40.393,0 -79.595,-10.596 -117.048,-31.579 -37.552,20.972 -75.905,31.564 -114.505,31.564 h -89.761 -2.827 l -2.817,-0.238 c -52.922,-4.458 -100.181,-21.878 -139.391,-51.034 -58.145,33.339 -129.847,51.609 -210.785,53.341 l -0.907,0.019 -0.91,-0.004 -105.689,-0.596 c -48.188,-0.309 -92.385,-9.948 -131.916,-28.718 -46.134,19.31 -97.193,29.4 -149.722,29.4 -69.635,0 -138.095,-17.288 -197.979,-49.993 l -1.939,-1.06 -1.697,-1.078 c -58.634,30.069 -123.192,45.799 -189.029,45.799 -55.903,0 -111.007,-11.672 -161.364,-33.984 -30.524,13.174 -63.066,20.4 -97.219,21.565 -38.636,71.528 -114.733,100.499 -177.424,111.947 -29.487,5.486 -60.117,8.288 -90.817,8.288 -25.793,0 -52.153,-1.978 -78.679,-5.893 l -2.739,10.503 -0.796,3.047 -1.075,2.959 C 223.178,1.364 142.05,59.428 39.149,65.965 26.5,66.809 13.258,67.244 0,67.244"
         style="fill:#ffffff;fill-opacity:1;fill-rule:nonzero;stroke:none"
         transform="matrix(1.3333333,0,0,-1.3333333,26536.468,190.34107)" />
    </g>
    <g
       id="g64"
       transform="matrix(0.26458333,0,0,0.26458333,-7405.6182,-151.52222)">
      <path
         id="path65"
         d="m 0,0 c -0.731,-14.131 -13.662,-23.454 -25.04,-22.688 l -74.457,5.002 c -12.203,0.821 -25.457,8.153 -29.405,20.478 l -50.112,156.405 -42.98,134.663 -10.588,-265.993 c -0.632,-15.864 -5.101,-34.077 -24.495,-33.064 l -80.319,4.189 c -12.536,0.654 -22.319,14.66 -21.754,26.659 l 6.25,132.598 16.809,441.355 c 0.714,18.703 10.376,32.683 30.269,31.786 l 69.672,-3.14 c 11.487,-0.519 27.695,-3.231 31.905,-16.493 l 54.548,-171.833 39.127,-125.199 9.649,195.423 3.941,87.581 c 0.718,15.966 19.462,21.44 33.513,20.445 L 8.477,613.08 C 20.693,612.215 31.73,602.146 31.004,588.614 L 15.946,308.352 Z"
         style="fill:#fcfcfc;fill-opacity:1;fill-rule:nonzero;stroke:none"
         transform="matrix(1.3333333,0,0,-1.3333333,31042.281,1603.3515)" />
    </g>
    <g
       id="g65"
       transform="matrix(0.26458333,0,0,0.26458333,-7405.6182,-151.52222)">
      <path
         id="path66"
         d="m 0,0 -106.185,3.697 c -6.095,0.212 -10.03,-4.742 -10.161,-10.647 l -2.39,-107.668 c -0.129,-5.751 3.98,-9.916 9.278,-10.133 l 128.659,-5.291 c 12.72,-0.522 24.028,-9.923 23.613,-23.479 l -2.472,-81.114 c -0.401,-13.129 -9.925,-25.414 -24.226,-24.803 l -237.265,10.13 c -14.246,0.609 -28.561,9.515 -28.121,25.521 l 13.136,476.782 1.45,97.176 c 0.243,16.212 11.318,31.496 29.633,30.837 l 235.296,-8.452 c 16.27,-0.585 27.28,-10.305 26.754,-27.347 L 54.728,271.666 C 54.307,258.024 43.835,248.647 30.329,249.103 l -123.496,4.172 c -4.673,0.158 -8.679,-0.121 -11.662,-2.917 -2.064,-1.932 -3.988,-6.296 -4.109,-10.652 l -2.9,-105.298 c -0.16,-5.804 3.832,-10.86 9.798,-11.044 l 100.744,-3.111 c 15.28,-0.473 24.74,-10.628 24.239,-26.396 L 20.68,22.66 C 20.329,11.633 13.189,-0.459 0,0"
         style="fill:#fcfcfc;fill-opacity:1;fill-rule:nonzero;stroke:none"
         transform="matrix(1.3333333,0,0,-1.3333333,30443.988,1251.8424)" />
    </g>
    <g
       id="g66"
       transform="matrix(0.26458333,0,0,0.26458333,-7405.6182,-151.52222)">
      <path
         id="path67"
         d="m 0,0 c -17.739,0.412 -33.686,5.944 -39.619,23.141 l -72.927,211.355 c -1.165,3.377 -3.455,5.802 -5.741,5.692 -1.784,-0.085 -6.282,-2.98 -6.318,-5.36 l -0.888,-58.685 -2.077,-143.425 C -127.821,15.275 -140.743,4.125 -157.859,4.464 l -67.368,1.334 c -9.789,0.195 -18.047,1.712 -24.342,7.91 -7.03,6.92 -8.267,14.757 -8.099,26.105 l 8.274,557.939 c -3.692,18.412 7.883,36.44 26.526,36.203 l 123.374,-1.573 C -69.576,632 -41.91,628.693 -14.07,618.238 38.898,598.342 75.558,553.584 84.815,497.075 97.16,421.718 85.234,312.083 15.853,272.083 11.112,269.349 7.444,264.262 9.684,257.939 L 91.161,27.907 C 96.386,13.154 83.874,-1.948 69.126,-1.604 Z m -44.203,398.318 c 9.1,39.463 6.421,95.618 -31.201,106.973 -14.2,4.286 -28.631,3.556 -43.057,2.489 -2.241,-6.49 -2.65,-12.036 -2.716,-18.412 l -1.312,-128.581 c 35.309,-11.146 69.778,0.639 78.286,37.531"
         style="fill:#fcfcfc;fill-opacity:1;fill-rule:nonzero;stroke:none"
         transform="matrix(1.3333333,0,0,-1.3333333,29928.193,1576.9192)" />
    </g>
    <g
       id="g67"
       transform="matrix(0.26458333,0,0,0.26458333,-7405.6182,-151.52222)">
      <path
         id="path68"
         d="m 0,0 -87.916,0.356 c -5.142,0.022 -11.165,-2.855 -12.259,-7.981 l -14.637,-68.614 c -2.214,-10.378 -12.546,-18.519 -23.557,-18.515 l -80.491,0.031 c -13.603,0.005 -24.832,12.907 -21.853,25.89 l 18.403,80.229 33.155,155.542 37.481,180.084 35.942,165.877 c 2.746,12.672 16.727,19.73 29.181,19.636 l 86.526,-0.656 c 16.932,-0.129 27.08,-12.29 30.504,-27.766 L 65.06,347.887 111.413,131.759 152.504,-62.93 c 1.68,-7.963 2.746,-16.377 -1.763,-22.728 -3.564,-5.022 -11.159,-11.262 -19.89,-11.182 l -81.449,0.751 c -13.845,0.128 -23.504,10.947 -25.855,23.415 l -11.78,62.47 C 10.879,-5.502 6.557,-0.026 0,0 m -67.31,118.891 55.594,0.548 -31.514,167.704 -32.249,-159.81 c -0.966,-4.785 3.367,-8.489 8.169,-8.442"
         style="fill:#fcfcfc;fill-opacity:1;fill-rule:nonzero;stroke:none"
         transform="matrix(1.3333333,0,0,-1.3333333,29323.929,1436.5312)" />
    </g>
    <g
       id="g68"
       transform="matrix(0.26458333,0,0,0.26458333,-7405.6182,-151.52222)">
      <path
         id="path69"
         d="m 0,0 c 0.182,-76.719 -31.999,-148.431 -106.094,-174.736 -25.381,-9.011 -50.978,-12.809 -78.366,-13.322 l -123.424,-2.312 c -9.985,-0.188 -17.909,2.036 -24.383,7.705 -7.613,6.664 -9.211,14.817 -9.312,25.734 l -2.308,251.31 -4.865,311.692 c -0.251,16.097 7.14,32.866 25.611,33.239 l 127.416,2.565 c 29.614,0.597 57.635,-2.979 84.702,-14.054 39.069,-15.984 70.734,-45.574 84.603,-85.969 C -4.591,278.272 -12.321,189.709 -66.545,143.537 -14.479,107.163 -0.144,60.598 0,0 m -141.037,240.436 c 3.954,33.285 -1.983,66.911 -31.652,78.128 -11.304,4.273 -39.222,4.995 -44.216,-0.075 -2.453,-2.493 -3.41,-6.663 -3.336,-11.027 l 1.857,-108.555 c 0.105,-6.156 13.789,-5.93 17.882,-4.223 30.559,-3.855 55.669,15.109 59.465,45.752 m -31.442,-301.484 c 22.034,3.509 37.679,21.589 42.153,42.748 8.234,38.945 0.556,90.345 -38.836,97.595 -15.885,2.923 -31.447,2.169 -46.72,0.004 -2.621,-9.724 -2.14,-18.246 -2.063,-27.77 l 0.841,-104.918 c 0.035,-4.372 4.144,-8.6 8.327,-8.502 z"
         style="fill:#fcfcfc;fill-opacity:1;fill-rule:nonzero;stroke:none"
         transform="matrix(1.3333333,0,0,-1.3333333,28978.186,1314.9648)" />
    </g>
    <g
       id="g69"
       transform="matrix(0.26458333,0,0,0.26458333,-7405.6182,-151.52222)">
      <path
         id="path70"
         d="m 0,0 c -27.847,-95.753 -129.594,-135.454 -221.241,-106.256 -61.905,19.724 -98.844,75.786 -106.357,138.836 -1.239,10.402 3.889,22.025 13.36,25.841 l 72.872,29.369 c 15.344,6.184 30.319,-4.498 33.403,-19.356 6.603,-31.815 18.25,-60.964 50.428,-58.163 15.574,1.356 28.57,11.544 34.362,28.076 8.89,25.369 3.002,52.85 -13.096,75.071 -13.239,18.276 -31.017,31.24 -48.876,45.207 l -67.984,53.169 c -65.273,51.049 -90.111,141.201 -63.248,221.068 16.991,50.519 58.275,85.764 109.869,96.882 39.634,8.54 79.46,6.867 116.85,-8.794 50.616,-21.202 79.206,-66.52 89.334,-119.478 2.819,-14.739 -5.414,-26.926 -19.044,-31.96 L -86.35,344.77 c -7.629,-2.819 -15.255,-2.192 -21.883,1.422 -14.837,8.091 -9.851,33.776 -27.336,55.047 -9.105,11.077 -23.7,14.529 -38.085,10.029 -26.935,-8.426 -34.173,-51.164 -10.579,-83.654 13.006,-17.913 31.29,-29.503 48.735,-43.128 L -61.15,226.421 C -32.642,199.686 -10.248,168.62 0.279,130.624 12.203,87.59 12.55,43.154 0,0"
         style="fill:#fcfcfc;fill-opacity:1;fill-rule:nonzero;stroke:none"
         transform="matrix(1.3333333,0,0,-1.3333333,28437.326,1433.44)" />
    </g>
    <g
       id="g70"
       transform="matrix(0.26458333,0,0,0.26458333,-7405.6182,-151.52222)">
      <path
         id="path71"
         d="m 0,0 c -15.546,-89.575 -69.227,-161.415 -164.025,-166.088 -58.178,-2.869 -110.343,22.29 -143.003,70.978 -37.666,56.15 -47.003,130.606 -53.235,198.477 -5.904,64.294 -6.846,127.036 0.09,191.157 3.473,32.116 10.754,61.588 23.945,90.85 33.263,73.794 105.296,111.29 185.298,99.351 55.753,-8.322 101.3,-42.346 125.196,-92.757 C 8.975,318.751 10.235,228.021 10.518,145.915 10.689,96.323 8.429,48.563 0,0 m -123.694,47.386 c 6.908,66.721 12.752,298.055 -49.036,309.618 -44.844,8.393 -55.642,-62.587 -58.209,-108.303 -4.149,-73.908 -1.008,-147.34 12.025,-220.043 5.31,-29.626 21.1,-62.805 49.115,-62.315 30.792,0.54 42.58,47.007 46.105,81.043"
         style="fill:#fcfcfc;fill-opacity:1;fill-rule:nonzero;stroke:none"
         transform="matrix(1.3333333,0,0,-1.3333333,27929.877,1383.8964)" />
    </g>
    <g
       id="g71"
       transform="matrix(0.26458333,0,0,0.26458333,-7405.6182,-151.52222)">
      <path
         id="path72"
         d="m 0,0 c 23.844,18.831 58.913,53.469 77.503,46.64 16.594,-6.097 12.512,-31.574 36.488,-47.781 15.968,-10.795 36.181,-5.151 44.623,11.815 5.507,11.07 7.935,22.777 7.334,35.39 l -6.313,132.513 -15.5,305.344 c -0.822,16.211 9.271,30.914 25.769,31.705 l 81.402,3.9 c 14.392,0.69 23.978,-13.527 24.394,-27.006 l 2.776,-89.954 14.096,-331.624 c 1.419,-33.379 -0.137,-63.859 -8.983,-95.311 -12.784,-45.444 -43.6,-81.26 -87.974,-98.71 -37.327,-14.678 -78.652,-17.522 -117.675,-6.072 C 33.575,-116.134 0.764,-79.414 -13.087,-36.59 -18.144,-20.955 -12.746,-10.067 0,0"
         style="fill:#fcfcfc;fill-opacity:1;fill-rule:nonzero;stroke:none"
         transform="matrix(1.3333333,0,0,-1.3333333,26992.692,1457.1529)" />
    </g>
    <g
       id="g72"
       transform="matrix(0.26458333,0,0,0.26458333,-7405.6182,-151.52222)">
      <path
         id="path73"
         d="m 0,0 c -312.506,23.327 -624.16,38.08 -938.043,42.928 l -242.555,3.748 c -8.259,0.127 -13.618,9.444 -13.817,14.914 -0.253,6.954 4.194,17.04 13.99,16.814 L -639.469,65.958 C -424.301,57.706 -210.772,44.338 2.883,27.375 12.464,26.614 16.669,19.423 16.271,12.193 15.841,4.378 9.785,-0.731 0,0"
         style="fill:#f79ab4;fill-opacity:1;fill-rule:nonzero;stroke:none"
         transform="matrix(1.3333333,0,0,-1.3333333,30846.081,1850.3684)" />
    </g>
    <g
       id="g73"
       transform="matrix(0.26458333,0,0,0.26458333,-7405.6182,-151.52222)">
      <path
         id="path74"
         d="m 0,0 -442.902,-26.52 c -8.411,-0.503 -10.747,10.501 -9.79,15.011 1.328,6.257 5.042,11.784 14.359,12.462 238.43,17.358 476.079,32.387 715.716,41.605 l 401.97,11.275 c 9.993,0.28 13.412,-10.477 12.798,-17.172 C 691.515,29.709 686.133,22.227 676.443,22.062 451.319,18.254 227.257,10.658 0,0"
         style="fill:#f79ab4;fill-opacity:1;fill-rule:nonzero;stroke:none"
         transform="matrix(1.3333333,0,0,-1.3333333,27673.381,1819.278)" />
    </g>
    <g
       id="g74"
       transform="matrix(0.26458333,0,0,0.26458333,-7405.6182,-151.52222)">
      <path
         id="path75"
         d="m 0,0 c -1.963,-4.22 -5.07,-6.519 -8.885,-6.423 -3.538,0.087 -6.867,2.295 -8.809,6.484 l -31.213,67.341 c -9.671,20.868 -17.004,41.819 -13.843,64.414 4.01,28.68 26.09,49.63 53.796,49.104 28.216,-0.536 49.663,-20.646 53.385,-50.074 C 47.325,107.971 39.805,85.527 29.92,64.288 Z"
         style="fill:#f79ab4;fill-opacity:1;fill-rule:nonzero;stroke:none"
         transform="matrix(1.3333333,0,0,-1.3333333,28940.395,1869.7487)" />
    </g>
    <g
       id="g75"
       transform="matrix(0.26458333,0,0,0.26458333,-7405.6182,-151.52222)">
      <path
         id="path76"
         d="m 0,0 c -36.466,16.974 -75.893,-1.162 -108.489,27.515 -12.761,11.227 -18.924,26.702 -14.825,43.984 3.25,13.706 15.505,26.397 32.411,30.275 C -27.326,116.364 16.623,13.365 9.195,2.642 8.028,0.956 3.496,-1.628 0,0"
         style="fill:#f79ab4;fill-opacity:1;fill-rule:nonzero;stroke:none"
         transform="matrix(1.3333333,0,0,-1.3333333,28860.962,1891.7376)" />
    </g>
    <g
       id="g76"
       transform="matrix(0.26458333,0,0,0.26458333,-7405.6182,-151.52222)">
      <path
         id="path77"
         d="m 0,0 c -29.508,-34.349 -74.664,-16.496 -112.946,-32.919 -1.783,-0.765 -4.698,0.079 -5.89,0.412 -15.946,4.468 40.872,133.284 108.532,96.567 C 1.631,57.583 8.938,46.773 10.624,35.872 12.68,22.584 8.886,10.343 0,0"
         style="fill:#f79ab4;fill-opacity:1;fill-rule:nonzero;stroke:none"
         transform="matrix(1.3333333,0,0,-1.3333333,29145.388,1847.8404)" />
    </g>
    <g
       id="g77"
       transform="matrix(0.26458333,0,0,0.26458333,-7405.6182,-151.52222)">
      <path
         id="path78"
         d="m 0,0 c 16.572,-20.973 -89.804,-52.232 -104.788,-39.005 -3.131,2.764 -4.876,7.168 -4.383,12.711 l 13.156,147.805 z"
         style="fill:#f79ab4;fill-opacity:1;fill-rule:nonzero;stroke:none"
         transform="matrix(1.3333333,0,0,-1.3333333,26227.063,1764.5163)" />
    </g>
    <g
       id="g78"
       transform="matrix(0.26458333,0,0,0.26458333,-7405.6182,-151.52222)">
      <path
         id="path79"
         d="m 0,0 c -19.55,-19.417 -49.315,43.559 -58.169,77.541 -1.893,7.264 3.877,17.374 12.103,18.18 L 93.35,109.369 c 2.338,0.23 5.583,-1.055 5.882,-2.291 1.145,-4.732 -46.074,-54.28 -63.189,-71.278 z"
         style="fill:#f79ab4;fill-opacity:1;fill-rule:nonzero;stroke:none"
         transform="matrix(1.3333333,0,0,-1.3333333,25873.083,1713.9348)" />
    </g>
    <g
       id="g79"
       transform="matrix(0.26458333,0,0,0.26458333,-7405.6182,-151.52222)">
      <path
         id="path80"
         d="m 0,0 c -1.915,-28.175 -69.107,3.046 -98.682,25.177 -5.2,3.89 -3.922,12.542 0.087,16.7 l 43.008,44.631 56.547,57.854 c 2.106,2.156 4.675,3.351 6.31,2.751 2.428,-0.892 2.361,-5.324 2.179,-8.006 z"
         style="fill:#f79ab4;fill-opacity:1;fill-rule:nonzero;stroke:none"
         transform="matrix(1.3333333,0,0,-1.3333333,26037.392,1799.7395)" />
    </g>
    <g
       id="g80"
       transform="matrix(0.26458333,0,0,0.26458333,-7405.6182,-151.52222)">
      <path
         id="path81"
         d="m 0,0 c -45.535,-9.888 -90.101,-12.666 -135.601,-16.75 -5.006,-0.448 -9.93,0.217 -13.407,2.752 -2.944,2.146 -6.667,7.065 -6.239,12.452 2.319,29.154 10.683,56.551 24.994,81.846 3.146,5.56 10.598,8.674 16.005,4.822 L -36.823,29.955 C -24.581,20.585 -11.719,14.255 0,0"
         style="fill:#f79ab4;fill-opacity:1;fill-rule:nonzero;stroke:none"
         transform="matrix(1.3333333,0,0,-1.3333333,25996.059,1522.2227)" />
    </g>
    <g
       id="g81"
       transform="matrix(0.26458333,0,0,0.26458333,-7405.6182,-151.52222)">
      <path
         id="path82"
         d="m 0,0 c -31.573,-25.71 -59.091,-54.547 -83.905,-88.276 20.697,-7.87 41.456,-7.338 63.308,-6.607 70.896,2.373 133.271,38.126 167.92,100.087 26.977,46.425 31.311,96.861 67.916,143.021 -44.572,8.235 -85.041,9.853 -128.099,6.368 -72.485,-5.867 -138.366,-45.235 -173.121,-108.922 -18.968,-34.759 -26.269,-73.184 -18.438,-111.509 23.803,29.607 47.783,54.993 75.012,78.997 4.318,22.785 12.956,36.614 22.403,57.065 3.614,7.712 14.378,25.098 14.378,25.098 L 0.771,37.04 c 27.762,18.067 52.982,34.799 82.253,47.329 3.794,1.624 7.268,-8.056 6.202,-10.871 C 88.051,70.394 85.5,66.909 81.619,63.913 L 21.412,17.435 C 38.39,14.808 49.223,14.071 76.636,9.429 Z"
         style="fill:#f79ab4;fill-opacity:1;fill-rule:nonzero;stroke:none"
         transform="matrix(1.3333333,0,0,-1.3333333,26800.862,770.35613)" />
    </g>
    <g
       id="g82"
       transform="matrix(0.26458333,0,0,0.26458333,-7405.6182,-151.52222)">
      <path
         id="path83"
         d="m 0,0 -25.899,-215.113 -24.831,-182.183 -10.769,-67.819 c -6.23,-23.851 -26.077,-37.557 -49.662,-38.715 l -178.267,-8.987 c -1.424,0 -2.67,1.512 -3.382,2.224 l 7.031,11.925 c 9.968,12.816 13.973,37.381 -0.356,49.306 l -102.528,85.885 -61.054,50.464 -3.738,11.125 c -3.827,18.157 -7.565,36.311 -11.303,54.379 l -4.895,23.496 c -3.293,15.664 -6.586,31.15 -9.523,46.013 -19.491,93.183 -34.977,168.833 -36.045,174.439 -0.089,0.179 -0.089,0.268 -0.089,0.268 h 0.089 c 5.251,-0.089 136.526,-2.314 169.901,1.068 48.95,4.895 95.942,13.705 144.536,21.893 50.908,8.456 111.161,12.55 159.577,-2.225 0.089,0 0.445,-0.177 0.534,-0.266 C -27.234,13.083 0,0 0,0"
         style="fill:#f79ab4;fill-opacity:1;fill-rule:nonzero;stroke:none"
         transform="matrix(1.3333333,0,0,-1.3333333,26815.211,1136.0481)" />
    </g>
    <g
       id="g83"
       transform="matrix(0.26458333,0,0,0.26458333,-7405.6182,-151.52222)">
      <path
         id="path84"
         d="m 0,0 c -3.595,10.456 5.184,18.833 11.845,20.418 10.836,2.575 18.217,-2.235 22.898,-11.597 8.586,-17.17 26.435,-25.193 44.619,-25.526 17.799,-0.326 36.912,9.491 45.159,26.83 4.101,8.626 7.45,15.333 19.071,15.393 5.321,0.026 11.329,-0.706 14.398,-4.763 C 172.124,2.074 140.186,-50.988 87.115,-55.104 48.807,-58.074 12.906,-37.528 0,0"
         style="fill:#17365c;fill-opacity:1;fill-rule:nonzero;stroke:none"
         transform="matrix(1.3333333,0,0,-1.3333333,26384.938,1450.3828)" />
    </g>
    <g
       id="g84"
       transform="matrix(0.26458333,0,0,0.26458333,-7405.6182,-151.52222)">
      <path
         id="path85"
         d="m 0,0 c -16.687,0.064 -23.598,-15.738 -24.182,-29.048 -0.302,-6.927 -8.026,-9.131 -12.023,-9.585 -4.126,-0.47 -14.067,-0.493 -15.473,5.317 -5.31,21.932 4.336,45.608 23.282,57.723 18.241,11.663 40.749,10.256 58.11,-1.878 15.423,-10.779 25.551,-32.318 21.087,-52.257 -1.437,-6.418 -10.076,-7.336 -14.692,-7.139 -4.134,0.179 -12.452,1.899 -12.878,8.878 C 22.452,-15.232 16.761,-0.064 0,0"
         style="fill:#17365c;fill-opacity:1;fill-rule:nonzero;stroke:none"
         transform="matrix(1.3333333,0,0,-1.3333333,26586.185,1305.2968)" />
    </g>
    <g
       id="g85"
       transform="matrix(0.26458333,0,0,0.26458333,-7405.6182,-151.52222)">
      <path
         id="path86"
         d="M 0,0 C -0.879,12.939 -14.12,22.159 -25.232,20.655 -38.716,18.832 -45.789,7.503 -45.08,-6.354 c 0.374,-7.292 -7.224,-11.105 -12.977,-12.083 -4.989,-0.845 -14.2,0.944 -15.702,8.09 -3.897,18.545 3.353,38.961 17.512,51.403 15.198,13.357 35.636,15.318 53.845,7.801 C 14.873,41.725 26.432,25.128 29.74,4.9 31.519,-5.971 28.84,-14.336 17.215,-15.671 7.914,-16.738 0.75,-11.027 0,0"
         style="fill:#17365c;fill-opacity:1;fill-rule:nonzero;stroke:none"
         transform="matrix(1.3333333,0,0,-1.3333333,26416.718,1339.5292)" />
    </g>
    <g
       id="g86"
       transform="matrix(0.26458333,0,0,0.26458333,-7405.6182,-151.52222)">
      <path
         id="path87"
         d="M 0,0 -3.275,-51.952 -49.867,-417.844 -79.937,-645 c -5.359,-39.893 -25.305,-74.279 -63.562,-90.059 -12.653,-5.21 -26.497,-5.804 -41.084,-6.4 l -219.416,-9.824 c -9.974,-0.448 -18.756,1.19 -28.432,6.549 25.156,17.415 45.698,38.107 65.199,60.286 0.744,-0.744 1.935,-2.232 3.424,-2.232 l 178.183,8.932 c 23.668,1.191 43.466,14.884 49.719,38.703 l 10.717,67.878 24.858,182.202 25.902,215.1 c 0,0 -27.241,13.098 -40.638,17.117 -0.15,0.149 -0.446,0.298 -0.595,0.298 -48.379,14.737 -108.666,10.718 -159.576,2.233 -48.527,-8.187 -95.566,-16.97 -144.54,-21.882 -33.344,-3.423 -164.636,-1.191 -169.847,-1.042 h -0.149 c 0,0 0,-0.149 0.149,-0.297 1.042,-5.657 16.524,-81.276 36.025,-174.46 2.976,-14.886 6.251,-30.368 9.525,-45.999 1.639,-7.739 3.276,-15.63 4.913,-23.52 3.721,-18.01 7.443,-36.172 11.313,-54.332 l 3.722,-11.164 35.726,-46.146 93.779,-106.136 c 4.912,-4.167 7.593,-10.716 3.276,-16.82 -26.051,-35.578 -60.139,-64.157 -100.181,-83.211 -108.964,-51.802 -235.046,-37.215 -328.976,38.405 -69.517,55.97 -110.303,142.307 -106.134,232.366 3.125,70.41 31.706,136.354 80.68,185.625 9.973,10.123 24.115,4.467 32.302,-2.678 l 49.42,-43.319 112.984,-96.608 c -2.084,-5.21 -5.657,-8.634 -9.826,-13.694 l -79.787,57.459 -57.012,42.127 c -9.379,6.995 -24.561,10.418 -32.749,-0.746 -59.096,-78.746 -63.562,-187.858 -6.847,-270.175 64.307,-93.633 182.052,-132.185 290.272,-98.247 33.493,10.569 62.966,26.943 88.421,50.76 4.317,4.02 7.145,7.445 7.443,12.058 0.446,6.401 -1.935,10.42 -6.847,14.886 l -82.915,76.215 c -15.183,13.993 -23.519,32.749 -32.896,51.505 -5.211,12.355 -3.871,6.103 -7.592,18.458 l -24.115,115.067 -70.112,339.991 c -5.656,27.24 8.783,52.993 29.92,68.027 18.31,13.099 37.364,15.63 59.841,16.523 l 359.342,13.695 c 0,-18.012 2.679,-35.279 8.335,-52.844 l -203.04,-8.634 11.164,-44.955 7.294,-28.879 8.038,-34.832 c -16.374,-3.423 -31.558,-3.573 -47.486,-3.126 -6.103,0.149 -12.503,-2.381 -18.905,0.149 l -3.721,15.48 -14.29,51.953 c -2.233,8.335 -3.127,17.118 -6.104,26.347 l -4.763,14.885 -92.143,-2.232 C -599.3,1.34 -622.225,-9.824 -618.354,-29.771 l 21.584,-111.792 c 19.054,4.465 132.334,2.38 146.328,3.124 0.594,0 91.993,8.486 131.589,13.697 l 77.853,10.568 c 52.1,6.847 125.933,4.912 171.334,-22.031 L -55.97,-22.18 C -35.577,-16.524 -18.31,-10.42 0,0"
         style="fill:#fcfcfc;fill-opacity:1;fill-rule:nonzero;stroke:none"
         transform="matrix(1.3333333,0,0,-1.3333333,26914.439,904.19653)" />
    </g>
    <g
       id="g87"
       transform="matrix(0.26458333,0,0,0.26458333,-7405.6182,-151.52222)">
      <path
         id="path88"
         d="m 0,0 c -7.128,-10.678 -19.172,-15.038 -30.221,-12.032 -9.382,2.551 -14.341,10.369 -15.836,17.645 -1.383,6.719 2.78,22.114 11.785,20.46 C -20.654,23.572 -10.221,8.814 0,0"
         style="fill:#fcfcfc;fill-opacity:1;fill-rule:nonzero;stroke:none"
         transform="matrix(1.3333333,0,0,-1.3333333,26118.489,1538.7063)" />
    </g>
    <g
       id="g88"
       transform="matrix(0.26458333,0,0,0.26458333,-7405.6182,-151.52222)">
      <path
         id="path89"
         d="m 0,0 -62.669,-11.015 -107.178,-18.756 c -46.443,-15.481 -72.344,-58.054 -66.836,-104.945 -0.595,-0.595 -0.447,-2.232 1.042,-1.934 v -5.063 l 7.294,-29.175 5.061,-19.649 12.652,-45.997 7.146,-29.027 -45.55,-2.084 c -6.848,-0.298 -16.821,-3.126 -23.817,0.744 -5.807,3.127 -3.722,13.1 -5.657,17.267 -4.913,10.123 -5.954,21.584 -8.783,32.154 l -11.462,43.465 c -21.286,57.758 -9.526,121.32 34.982,166.126 23.37,23.519 53.141,39.893 86.783,45.551 L -10.866,65.051 C 3.572,67.433 11.462,48.081 13.249,37.363 15.481,23.818 15.332,2.829 0,0"
         style="fill:#ffffff;fill-opacity:1;fill-rule:nonzero;stroke:none"
         transform="matrix(1.3333333,0,0,-1.3333333,26590.326,428.4492)" />
    </g>
    <g
       id="g89"
       transform="matrix(0.26458333,0,0,0.26458333,-7405.6182,-151.52222)">
      <path
         id="path90"
         d="M 0,0 C -1.947,9.629 -11.29,15.844 -20.964,13.941 -30.594,12.002 -36.843,2.616 -34.905,-7.023 l 47.577,-236.684 c 1.703,-8.448 9.126,-14.288 17.435,-14.288 1.165,0 2.338,0.113 3.529,0.348 9.63,1.938 15.879,11.323 13.941,20.962 z"
         style="fill:#ffffff;fill-opacity:1;fill-rule:nonzero;stroke:none"
         transform="matrix(1.3333333,0,0,-1.3333333,26247.423,1206.3632)" />
    </g>
    <g
       id="g90"
       transform="matrix(0.26458333,0,0,0.26458333,-7405.6182,-151.52222)">
      <path
         id="path91"
         d="M 0,0 C -10.835,-28.674 -40.799,-44.85 -69.129,-32.337 -91.058,-22.651 -99.682,4.302 -89.781,26.223 -70.025,69.972 6.713,80.007 50.266,55.525 26.734,40.23 9.433,24.962 0,0"
         style="fill:#ffffff;fill-opacity:1;fill-rule:nonzero;stroke:none"
         transform="matrix(1.3333333,0,0,-1.3333333,25859.428,980.9244)" />
    </g>
    <g
       id="g91"
       transform="matrix(0.26458333,0,0,0.26458333,-7405.6182,-151.52222)">
      <path
         id="path92"
         d="m 0,0 c -2.215,-8.165 -29.648,17.248 -77.47,16.4 -34.979,-0.62 -60.144,17.34 -58.286,47.144 0.984,15.802 11.678,29.986 28.035,36.323 C -57.758,119.222 -9.682,63.514 0.75,4.462 1.098,2.497 0.219,0.807 0,0"
         style="fill:#ffffff;fill-opacity:1;fill-rule:nonzero;stroke:none"
         transform="matrix(1.3333333,0,0,-1.3333333,25945.216,841.97587)" />
    </g>
  </g>
</svg>
